<svg width="13" height="13" viewBox="0 0 13 13" fill="none" xmlns="http://www.w3.org/2000/svg">
<path d="M12.5 6.5C12.5 8.0913 11.8679 9.61742 10.7426 10.7426C9.61742 11.8679 8.0913 12.5 6.5 12.5M12.5 6.5C12.5 4.9087 11.8679 3.38258 10.7426 2.25736C9.61742 1.13214 8.0913 0.5 6.5 0.5M12.5 6.5H0.5M6.5 12.5C4.9087 12.5 3.38258 11.8679 2.25736 10.7426C1.13214 9.61742 0.5 8.0913 0.5 6.5M6.5 12.5C7.60467 12.5 8.5 9.81333 8.5 6.5C8.5 3.18667 7.60467 0.5 6.5 0.5M6.5 12.5C5.39533 12.5 4.5 9.81333 4.5 6.5C4.5 3.18667 5.39533 0.5 6.5 0.5M6.5 0.5C4.9087 0.5 3.38258 1.13214 2.25736 2.25736C1.13214 3.38258 0.5 4.9087 0.5 6.5" stroke="#6099FE" stroke-linecap="round" stroke-linejoin="round"/>
</svg>
