<?xml version="1.0" encoding="UTF-8"?>
<svg id="_Слой_1" data-name="Слой_1" xmlns="http://www.w3.org/2000/svg" xmlns:xlink="http://www.w3.org/1999/xlink" viewBox="0 0 15 14.33">
  <defs>
    <style>
      .cls-1 {
        fill: #808392;
        fill-rule: evenodd;
      }

      .cls-2 {
        fill: #6099fe;
      }

      .cls-3 {
        clip-rule: evenodd;
        fill: none;
      }

      .cls-4 {
        clip-path: url(#clippath);
      }
    </style>
    <clipPath id="clippath">
      <path class="cls-3" d="M4.68,2.37c-.34-.45-.97-.49-1.32-.13l-1.05,1.04c-.22.22-.33.46-.31.69.05.94.48,3.09,3.06,5.66,2.71,2.69,5.21,2.77,6.18,2.68.2-.02.39-.12.58-.3l.95-.94c.39-.38.3-1.08-.24-1.38l-1.27-.69c-.35-.19-.76-.13-1.02.13l-.3.3-.35-.35q.35.35.35.36h0s0,0,0,0h0s-.01.01-.01.01c-.03.03-.06.05-.09.07-.05.04-.12.07-.21.11-.18.07-.42.1-.71.06-.58-.09-1.34-.48-2.36-1.49-1.02-1.01-1.41-1.77-1.5-2.35-.05-.29,0-.53.06-.71.04-.1.09-.2.16-.28l.02-.02h0s0-.01,0-.01h0s0,0,0,0l.19-.19c.29-.28.33-.76.06-1.12l-.84-1.12ZM2.66,1.53c.81-.81,2.15-.66,2.83.24l.84,1.12c.55.74.5,1.77-.15,2.42l-.16.16c-.02.07-.02.14,0,.2.04.27.27.85,1.22,1.79.95.95,1.53,1.17,1.81,1.22.07.01.14.01.21,0l.27-.27c.58-.58,1.48-.69,2.2-.3l1.27.69c1.09.59,1.37,2.07.47,2.96l-.95.94c-.3.3-.7.54-1.19.59-1.21.11-4.02-.03-6.97-2.97C1.6,7.6,1.07,5.2,1,4.03c-.03-.6.25-1.1.61-1.46l1.05-1.04Z"/>
    </clipPath>
  </defs>
  <path class="cls-1" d="M4.68,2.37c-.34-.45-.97-.49-1.32-.13l-1.05,1.04c-.22.22-.33.46-.31.69.05.94.48,3.09,3.06,5.66,2.71,2.69,5.21,2.77,6.18,2.68.2-.02.39-.12.58-.3l.95-.94c.39-.38.3-1.08-.24-1.38l-1.27-.69c-.35-.19-.76-.13-1.02.13l-.3.3-.35-.35q.35.35.35.36h0s0,0,0,0h0s-.01.01-.01.01c-.03.03-.06.05-.09.07-.05.04-.12.07-.21.11-.18.07-.42.1-.71.06-.58-.09-1.34-.48-2.36-1.49-1.02-1.01-1.41-1.77-1.5-2.35-.05-.29,0-.53.06-.71.04-.1.09-.2.16-.28l.02-.02h0s0-.01,0-.01h0s0,0,0,0l.19-.19c.29-.28.33-.76.06-1.12l-.84-1.12ZM2.66,1.53c.81-.81,2.15-.66,2.83.24l.84,1.12c.55.74.5,1.77-.15,2.42l-.16.16c-.02.07-.02.14,0,.2.04.27.27.85,1.22,1.79.95.95,1.53,1.17,1.81,1.22.07.01.14.01.21,0l.27-.27c.58-.58,1.48-.69,2.2-.3l1.27.69c1.09.59,1.37,2.07.47,2.96l-.95.94c-.3.3-.7.54-1.19.59-1.21.11-4.02-.03-6.97-2.97C1.6,7.6,1.07,5.2,1,4.03c-.03-.6.25-1.1.61-1.46l1.05-1.04Z"/>
  <g class="cls-4">
    <path class="cls-2" d="M5.52,3.5l.8-.6-.84-1.12-.8.6-.8.6.84,1.12.8-.6ZM5.47,4.61l.71.71c.65-.65.71-1.68.15-2.42l-.8.6-.8.6s-.04-.11.04-.19l.71.71ZM5.27,4.8l.7.71.19-.19-.7-.71-.7-.71-.19.19.7.71ZM5.27,4.8l.71.71h0s-.71-.71-.71-.71l-.71-.71h0s.71.71.71.71ZM5.27,4.81l.71.71h0s-.71-.71-.71-.71l-.71-.71h0s.71.71.71.71ZM5.27,4.81l.71.71h0s-.71-.71-.71-.71l-.71-.71h0s.71.71.71.71ZM5.26,4.82l.73.68h0s-.73-.69-.73-.69l-.73-.68h0s.73.69.73.69ZM5.24,4.84l.74.67.02-.02-.74-.67-.74-.67-.02.02.74.67ZM5.08,5.12l.94.35-.78-.63-.78-.63c-.14.17-.24.36-.32.56l.94.35ZM5.02,5.84l.99-.15c-.02-.13,0-.19,0-.21l-.94-.35-.94-.35c-.13.35-.18.76-.11,1.22l.99-.15ZM6.52,8.19l.71-.71c-.95-.95-1.18-1.52-1.22-1.79l-.99.15-.99.15c.14.88.7,1.83,1.79,2.91l.71-.71ZM8.88,9.68l.15-.99c-.28-.04-.86-.27-1.81-1.22l-.71.71-.71.71c1.08,1.08,2.04,1.64,2.92,1.77l.15-.99ZM9.6,9.62l-.35-.94s-.08.03-.21,0l-.15.99-.15.99c.46.07.87.02,1.22-.11l-.35-.94ZM9.81,9.52l-.55-.83s0,0,0,0l.35.94.35.94c.17-.06.31-.14.42-.21l-.55-.83ZM9.9,9.45l-.68-.73s.03-.02.05-.04l.54.84.54.84c.08-.05.16-.11.23-.18l-.68-.73ZM9.91,9.44l-.68-.73h-.01s.68.74.68.74l.68.73h.01s-.68-.74-.68-.74ZM9.92,9.43l-.65-.76h0s.65.76.65.76l.65.76h0s-.65-.76-.65-.76ZM9.92,9.43l-.71-.71h0s.71.71.71.71l.71.71h0s-.71-.71-.71-.71ZM9.92,9.43l-.89-.45h0s.89.45.89.45l.89.45h0s-.89-.45-.89-.45ZM9.57,9.07l-.71.71c.18.18.26.26.31.31.02.02.03.03.03.03,0,0,0,0,0,0,0,0-.01-.01-.03-.03,0,0-.02-.02-.04-.05,0-.01-.06-.07-.1-.16-.02-.04-.07-.15-.09-.31-.02-.17-.02-.48.22-.77.22-.26.49-.33.59-.34.06-.01.11-.01.13-.02.03,0,.05,0,.05,0v2s.02,0,.05,0c.03,0,.07,0,.13-.02.1-.02.37-.08.59-.34.24-.29.24-.6.22-.77-.02-.15-.07-.27-.09-.31-.04-.09-.09-.15-.1-.16-.02-.02-.03-.04-.04-.05-.02-.03-.04-.05-.04-.05-.01-.01-.03-.03-.05-.05-.05-.05-.14-.14-.31-.31l-.71.71ZM9.92,9.43l.71-.71-.35-.35-.71.71-.71.71.35.35.71-.71ZM10.22,9.13l-.71-.71-.3.3.71.71.71.71.3-.3-.71-.71ZM11.24,9l.48-.88c-.72-.39-1.62-.28-2.2.3l.71.71.71.71c-.07.07-.14.05-.16.04l.48-.88ZM12.52,9.69l.48-.88-1.27-.69-.48.88-.48.88,1.27.69.48-.88ZM12.76,11.07l.7.71c.88-.88.63-2.37-.47-2.96l-.48.88-.48.88s0,0,0,0c0,0,0,0-.01-.02,0-.01-.02-.03-.02-.04,0-.03,0-.09.06-.15l.7.71ZM11.81,12.01l.71.71.95-.94-.71-.71-.71-.71-.95.94.71.71ZM11.24,12.31l.09,1c.49-.04.89-.29,1.19-.59l-.7-.71-.7-.71s-.05.04-.04.04c0,0,.01,0,.03-.01.01,0,.03,0,.05-.01l.09,1ZM5.06,9.63l-.71.71c2.95,2.94,5.77,3.08,6.97,2.97l-.09-1-.09-1c-.73.07-2.92.05-5.38-2.4l-.71.71ZM2,3.97l-1,.06c.07,1.18.6,3.57,3.35,6.31l.71-.71.71-.71c-2.4-2.39-2.73-4.31-2.77-5.01l-1,.06ZM2.31,3.28l-.7-.71c-.36.36-.64.86-.61,1.46l1-.06,1-.06c0,.06-.01.1-.02.12,0,.01,0,0,.04-.04l-.7-.71ZM3.36,2.24l-.7-.71-1.05,1.04.7.71.7.71,1.05-1.04-.7-.71ZM4.68,2.37l.8-.6c-.68-.91-2.02-1.05-2.83-.24l.71.71.71.71s-.1.06-.12.05c-.03,0-.05-.02-.06-.03l.8-.6ZM1.61,2.57l.71.71,1.05-1.04-.71-.71-.71-.71L.9,1.86l.71.71ZM1,4.03l1-.06c-.01-.23.09-.47.31-.69l-.7-.71-.7-.71C.41,2.35-.05,3.12,0,4.08l1-.06ZM4.36,10.34l.71-.71c-2.58-2.57-3.01-4.72-3.06-5.66l-1,.06-1,.06c.08,1.42.71,4.05,3.65,6.97l.71-.71ZM11.33,13.31l-.09-1c-.97.09-3.47,0-6.18-2.68l-.71.71-.71.71c3.2,3.18,6.33,3.39,7.77,3.26l-.09-1ZM12.52,12.72l-.7-.71c-.18.18-.38.29-.58.3l.09,1,.09,1c.78-.07,1.39-.47,1.8-.88l-.7-.71ZM13.47,11.78l-.7-.71-.95.94.7.71.7.71.95-.94-.7-.71ZM12.99,8.81l-.48.88c.55.3.63,1,.24,1.38l.71.71.71.71c1.41-1.4.93-3.67-.7-4.55l-.48.88ZM11.72,8.12l-.48.88,1.27.69.48-.88.48-.88-1.27-.69-.48.88ZM9.52,8.42l.7.71c.26-.25.67-.32,1.02-.13l.48-.88.48-.88c-1.09-.59-2.47-.44-3.38.47l.7.71ZM9.25,8.69l.71.71.27-.27-.71-.71-.71-.71-.27.27.71.71ZM9.04,8.69l-.2.98c.22.04.44.04.66-.02l-.25-.97-.25-.97c.08-.02.16-.02.24,0l-.2.98ZM7.23,7.48l-.71.71c1.02,1.01,1.78,1.41,2.36,1.5l.15-.99.15-.99s-.37-.06-1.26-.94l-.71.71ZM6.01,5.68l-.99.15c.09.58.49,1.34,1.5,2.35l.71-.71.71-.71c-.89-.88-.94-1.27-.94-1.24l-.99.15ZM6.01,5.48l-.97-.26c-.06.22-.07.45-.02.67l.98-.21.98-.21c.02.09.02.18,0,.27l-.97-.26ZM6.17,5.32l-.71-.71-.16.16.71.71.71.71.16-.16-.71-.71ZM6.32,2.9l-.8.6c.27.36.23.83-.06,1.11l.7.71.7.71c1.03-1.02,1.08-2.61.25-3.73l-.8.6ZM5.48,1.77l-.8.6.84,1.12.8-.6.8-.6-.84-1.12-.8.6ZM2.66,1.53l.71.71c.35-.35.98-.32,1.32.13l.8-.6.8-.6C5.26-.19,3.22-.44,1.95.82l.71.71ZM5.52,3.5l.8-.6h0s-.8.6-.8.6ZM5.47,4.61l.7.71h0s-.71-.71-.71-.71ZM5.27,4.8l-.7-.71h0s.71.71.71.71ZM5.27,4.8l.71.71h0s-.71-.71-.71-.71ZM5.27,4.81l-.71-.71h0s.71.71.71.71ZM5.27,4.81l-.71-.71h-.01s-.01.02-.01.02l.73.68ZM5.26,4.82l-.73-.68h0s.74.68.74.68ZM5.24,4.84l-.74-.67-.02.02-.02.02.78.63ZM5.08,5.12l.94.35h0s-.94-.35-.94-.35ZM5.02,5.84l.99-.15h0s-.99.15-.99.15ZM6.52,8.19l-.71.71h0s.71-.71.71-.71ZM8.88,9.68l.15-.99h0s-.15.99-.15.99ZM9.6,9.62l-.35-.94h0s.35.94.35.94ZM9.81,9.52l-.54-.84h0s.55.84.55.84ZM9.9,9.45l.68.73h0s-.68-.73-.68-.73ZM9.91,9.44l-.65-.76h-.02s-.02.03-.02.03l.68.73ZM9.92,9.43l.65.76.03-.03.03-.03-.71-.71ZM9.92,9.43l.71.71.11-.11.07-.15-.89-.45ZM9.92,9.43v-1h-.62l-.28.55.89.45ZM9.92,9.43l-.71.71.71.71.71-.71-.71-.71ZM10.22,9.13l-.71-.71h0s.71.71.71.71ZM11.24,9l.48-.88h0s-.48.88-.48.88ZM12.52,9.69l-.48.88h0s.48-.88.48-.88ZM12.76,11.07l-.7-.71h0s.71.71.71.71ZM11.81,12.01l.7.71h0s-.71-.71-.71-.71ZM11.24,12.31l-.09-1h0s.09,1,.09,1ZM5.06,9.63l-.71.71h0s.71-.71.71-.71ZM2,3.97l1-.06h0s-1,.06-1,.06ZM2.31,3.28l-.7-.71h0s.7.71.7.71ZM3.36,2.24l.7.71h0s-.71-.71-.71-.71ZM4.68,2.37l.8-.6h0s-.8.6-.8.6ZM1.61,2.57l.7.71h0s-.71-.71-.71-.71ZM1,4.03l-1,.06h0s1-.06,1-.06ZM4.36,10.34l-.71.71h0s.71-.71.71-.71ZM11.33,13.31l.09,1h0s-.09-1-.09-1ZM12.52,12.72l.7.71h0s-.7-.71-.7-.71ZM13.47,11.78l.7.71h0s-.71-.71-.71-.71ZM12.99,8.81l-.48.88h0s.48-.88.48-.88ZM11.72,8.12l.48-.88h0s-.48.88-.48.88ZM9.52,8.42l-.7-.71h0s.71.71.71.71ZM9.25,8.69l.25.97.26-.07.19-.19-.71-.71ZM9.04,8.69l.2-.98h-.02s-.02,0-.02,0l-.15.99ZM6.01,5.68l.99-.15v-.03s-.01-.03-.01-.03l-.98.21ZM6.01,5.48l-.71-.71-.19.19-.07.26.97.26ZM6.17,5.32l-.7-.71h0s.71.71.71.71ZM6.32,2.9l.8-.6h0s-.8.6-.8.6ZM5.48,1.77l-.8.6h0s.8-.6.8-.6ZM2.66,1.53l-.71-.71h0s.71.71.71.71ZM5.27,4.8l-.35.35.35.35.35-.35.35-.35-.35-.35-.35.35ZM1,4.03l.03.5.5-.03-.03-.5-.03-.5-.5.03.03.5Z"/>
  </g>
</svg>