<svg width="16" height="16" viewBox="0 0 16 16" fill="none" xmlns="http://www.w3.org/2000/svg">
<path d="M7.93512 3.98724C7.53956 3.98724 7.15288 4.10454 6.82398 4.3243C6.49508 4.54407 6.23874 4.85642 6.08736 5.22188C5.93599 5.58733 5.89638 5.98946 5.97355 6.37742C6.05072 6.76539 6.2412 7.12175 6.52091 7.40146C6.80061 7.68116 7.15698 7.87164 7.54494 7.94881C7.9329 8.02598 8.33504 7.98638 8.70049 7.835C9.06594 7.68363 9.3783 7.42728 9.59806 7.09838C9.81782 6.76949 9.93512 6.38281 9.93512 5.98724C9.93452 5.457 9.72361 4.94864 9.34867 4.5737C8.97373 4.19875 8.46537 3.98785 7.93512 3.98724ZM7.93512 6.98724C7.73734 6.98724 7.544 6.92859 7.37955 6.81871C7.2151 6.70883 7.08693 6.55265 7.01124 6.36993C6.93555 6.1872 6.91575 5.98613 6.95433 5.79215C6.99292 5.59817 7.08816 5.41999 7.22801 5.28014C7.36787 5.14028 7.54605 5.04504 7.74003 5.00646C7.93401 4.96787 8.13508 4.98768 8.3178 5.06336C8.50053 5.13905 8.65671 5.26722 8.76659 5.43167C8.87647 5.59612 8.93512 5.78946 8.93512 5.98724C8.93481 6.25237 8.82936 6.50654 8.64189 6.69401C8.45442 6.88148 8.20024 6.98694 7.93512 6.98724Z" fill="white"/>
<path d="M11.7783 2.14109C10.8281 1.19111 9.55964 0.626776 8.2178 0.557017C6.87596 0.487259 5.55584 0.917019 4.51222 1.76335C3.46861 2.60968 2.77549 3.81259 2.56663 5.13992C2.35777 6.46724 2.64798 7.82488 3.38125 8.95081L7.15959 14.7512C7.24368 14.8803 7.35864 14.9863 7.49407 15.0597C7.6295 15.1331 7.7811 15.1716 7.93514 15.1716C8.08918 15.1716 8.24078 15.1331 8.3762 15.0597C8.51163 14.9863 8.6266 14.8803 8.71068 14.7512L12.4892 8.95081C13.1695 7.90635 13.4702 6.65974 13.3408 5.41995C13.2114 4.18015 12.6597 3.02252 11.7783 2.14109ZM11.6513 8.40497L7.93515 14.1097L4.219 8.40497C3.0815 6.65875 3.32547 4.32187 4.79909 2.84819C5.21092 2.43635 5.69984 2.10966 6.23792 1.88677C6.77601 1.66388 7.35273 1.54916 7.93515 1.54916C8.51758 1.54916 9.0943 1.66388 9.63238 1.88677C10.1705 2.10966 10.6594 2.43635 11.0712 2.84819C12.5448 4.32187 12.7888 6.65875 11.6513 8.40497Z" fill="white"/>
</svg>
