<svg width="17" height="17" viewBox="0 0 17 17" fill="none" xmlns="http://www.w3.org/2000/svg">
<g clip-path="url(#clip0_3307_2223)">
<path d="M8.50564 2.9917H7.50317V8.57138L11.125 10.2927L11.5553 9.38733L8.50564 7.93789V2.9917Z" fill="#808392"/>
<path d="M8.0197 0.501221C3.86737 0.501221 0.501221 3.86737 0.501221 8.0197C0.501221 12.172 3.86737 15.5382 8.0197 15.5382C12.172 15.5382 15.5382 12.172 15.5382 8.0197C15.5382 3.86737 12.172 0.501221 8.0197 0.501221ZM8.0197 14.5357C4.42101 14.5357 1.50368 11.6184 1.50368 8.0197C1.50368 4.42101 4.42101 1.50368 8.0197 1.50368C11.6184 1.50368 14.5357 4.42101 14.5357 8.0197C14.5357 11.6184 11.6184 14.5357 8.0197 14.5357Z" fill="#808392"/>
</g>
<defs>
<clipPath id="clip0_3307_2223">
<rect width="16.0394" height="16.0394" fill="white"/>
</clipPath>
</defs>
</svg>
