<svg width="17" height="17" viewBox="0 0 17 17" fill="none" xmlns="http://www.w3.org/2000/svg">
<g clip-path="url(#clip0_2658_43)">
<path d="M8.50588 2.99173H7.50342V8.57141L11.1252 10.2928L11.5556 9.38736L8.50588 7.93792V2.99173Z" fill="white"/>
<path d="M8.01995 0.501221C3.86761 0.501221 0.501465 3.86737 0.501465 8.0197C0.501465 12.172 3.86761 15.5382 8.01995 15.5382C12.1723 15.5382 15.5384 12.172 15.5384 8.0197C15.5384 3.86737 12.1723 0.501221 8.01995 0.501221ZM8.01995 14.5357C4.42126 14.5357 1.50393 11.6184 1.50393 8.0197C1.50393 4.42101 4.42126 1.50368 8.01995 1.50368C11.6186 1.50368 14.536 4.42101 14.536 8.0197C14.536 11.6184 11.6186 14.5357 8.01995 14.5357Z" fill="white"/>
</g>
<defs>
<clipPath id="clip0_2658_43">
<rect width="16.0394" height="16.0394" fill="white"/>
</clipPath>
</defs>
</svg>
