<svg width="19" height="19" viewBox="0 0 19 19" fill="none" xmlns="http://www.w3.org/2000/svg">
<path d="M12.4053 5.07498H16.3525V9.02218" stroke="#808392" stroke-linecap="round" stroke-linejoin="round"/>
<path d="M1.69189 12.9694L5.96932 8.69195C6.07405 8.5872 6.19839 8.5041 6.33523 8.44741C6.47207 8.39072 6.61875 8.36154 6.76687 8.36154C6.91499 8.36154 7.06166 8.39072 7.19851 8.44741C7.33535 8.5041 7.45969 8.5872 7.56442 8.69195L9.35264 10.4802C9.45737 10.5849 9.5817 10.668 9.71855 10.7247C9.85539 10.7814 10.0021 10.8106 10.1502 10.8106C10.2983 10.8106 10.445 10.7814 10.5818 10.7247C10.7187 10.668 10.843 10.5849 10.9477 10.4802L15.789 5.63885" stroke="#808392" stroke-linecap="round" stroke-linejoin="round"/>
</svg>
