<svg width="19" height="19" viewBox="0 0 19 19" fill="none" xmlns="http://www.w3.org/2000/svg">
<path d="M12.4055 5.07495H16.3527V9.02215" stroke="#6099FE" stroke-linecap="round" stroke-linejoin="round"/>
<path d="M1.69165 12.9694L5.96908 8.69195C6.0738 8.5872 6.19814 8.5041 6.33499 8.44741C6.47183 8.39072 6.6185 8.36154 6.76662 8.36154C6.91475 8.36154 7.06142 8.39072 7.19826 8.44741C7.33511 8.5041 7.45944 8.5872 7.56417 8.69195L9.35239 10.4802C9.45712 10.5849 9.58146 10.668 9.7183 10.7247C9.85515 10.7814 10.0018 10.8106 10.1499 10.8106C10.2981 10.8106 10.4447 10.7814 10.5816 10.7247C10.7184 10.668 10.8428 10.5849 10.9475 10.4802L15.7888 5.63885" stroke="#6099FE" stroke-linecap="round" stroke-linejoin="round"/>
</svg>
