<svg width="13" height="13" viewBox="0 0 13 13" fill="none" xmlns="http://www.w3.org/2000/svg">
<g clip-path="url(#clip0_2811_983)">
<path fill-rule="evenodd" clip-rule="evenodd" d="M10.6111 7.16463L6.655 11.1215C6.50348 11.273 6.29825 11.3585 6.084 11.3594C5.86975 11.3603 5.6638 11.2766 5.511 11.1264L1.89537 7.57575C1.74175 7.42468 1.65442 7.21878 1.6526 7.00333C1.65077 6.78788 1.73459 6.58053 1.88562 6.42688L5.84087 2.39688C5.95423 2.28123 6.08949 2.18934 6.23876 2.12656C6.38803 2.06378 6.54831 2.03138 6.71025 2.03125H10.1561C10.3715 2.03125 10.5782 2.11685 10.7306 2.26923C10.883 2.4216 10.9686 2.62826 10.9686 2.84375V6.30256C10.9685 6.4627 10.9369 6.62125 10.8756 6.76917C10.8142 6.91709 10.7244 7.05147 10.6111 7.16463ZM4.97068 1.54213C5.19762 1.31103 5.46834 1.12749 5.76702 1.00221C6.0657 0.876936 6.38636 0.812442 6.71025 0.8125H10.1561C10.6948 0.8125 11.2114 1.02651 11.5924 1.40744C11.9733 1.78837 12.1873 2.30503 12.1873 2.84375V6.30256C12.1873 6.62277 12.1243 6.93985 12.0018 7.23568C11.8792 7.53151 11.6996 7.8003 11.4731 8.02669L7.51625 11.9836C7.13748 12.362 6.6246 12.5756 6.08916 12.5779C5.55372 12.5802 5.03904 12.371 4.65706 11.9958L1.04143 8.44513C0.657165 8.06767 0.438553 7.55304 0.433677 7.01442C0.428801 6.47579 0.638061 5.95729 1.01543 5.57294L4.97068 1.54213ZM8.53106 5.28125C8.2617 5.28125 8.00337 5.17425 7.8129 4.98378C7.62244 4.79331 7.51543 4.53499 7.51543 4.26563C7.51543 3.99626 7.62244 3.73794 7.8129 3.54747C8.00337 3.357 8.2617 3.25 8.53106 3.25C8.80042 3.25 9.05875 3.357 9.24921 3.54747C9.43968 3.73794 9.54668 3.99626 9.54668 4.26563C9.54668 4.53499 9.43968 4.79331 9.24921 4.98378C9.05875 5.17425 8.80042 5.28125 8.53106 5.28125Z" fill="#808392"/>
</g>
<defs>
<clipPath id="clip0_2811_983">
<rect width="13" height="13" fill="white"/>
</clipPath>
</defs>
</svg>
