<svg width="48" height="48" viewBox="0 0 48 48" fill="none" xmlns="http://www.w3.org/2000/svg">
<circle cx="24" cy="24" r="23" stroke="#4F8CFF" stroke-width="2"/>
<path fill-rule="evenodd" clip-rule="evenodd" d="M21.47 18.97C21.3296 19.1106 21.2507 19.3013 21.2507 19.5C21.2507 19.6988 21.3296 19.8894 21.47 20.03L25.44 24L21.47 27.97C21.3964 28.0387 21.3373 28.1215 21.2963 28.2135C21.2553 28.3055 21.2332 28.4048 21.2315 28.5055C21.2297 28.6062 21.2482 28.7062 21.2859 28.7996C21.3236 28.893 21.3798 28.9778 21.451 29.049C21.5222 29.1203 21.6071 29.1764 21.7005 29.2141C21.7938 29.2519 21.8939 29.2704 21.9946 29.2686C22.0953 29.2668 22.1946 29.2448 22.2866 29.2038C22.3786 29.1628 22.4614 29.1037 22.53 29.03L27.03 24.53C27.1705 24.3894 27.2494 24.1988 27.2494 24C27.2494 23.8013 27.1705 23.6106 27.03 23.47L22.53 18.97C22.3894 18.8296 22.1988 18.7507 22 18.7507C21.8013 18.7507 21.6107 18.8296 21.47 18.97Z" fill="#4F8CFF"/>
</svg>
