<svg width="48" height="48" viewBox="0 0 48 48" fill="none" xmlns="http://www.w3.org/2000/svg">
<circle cx="24" cy="24" r="23" stroke="#E3E7EB" stroke-width="2"/>
<path fill-rule="evenodd" clip-rule="evenodd" d="M26.53 17.97C26.6704 18.1106 26.7493 18.3013 26.7493 18.5C26.7493 18.6988 26.6704 18.8894 26.53 19.03L22.56 23L26.53 26.97C26.6036 27.0387 26.6627 27.1215 26.7037 27.2135C26.7447 27.3055 26.7668 27.4048 26.7685 27.5055C26.7703 27.6062 26.7518 27.7062 26.7141 27.7996C26.6764 27.893 26.6202 27.9778 26.549 28.049C26.4778 28.1203 26.3929 28.1764 26.2995 28.2141C26.2062 28.2519 26.1061 28.2704 26.0054 28.2686C25.9047 28.2668 25.8054 28.2448 25.7134 28.2038C25.6214 28.1628 25.5386 28.1037 25.47 28.03L20.97 23.53C20.8295 23.3894 20.7506 23.1988 20.7506 23C20.7506 22.8013 20.8295 22.6106 20.97 22.47L25.47 17.97C25.6106 17.8296 25.8012 17.7507 26 17.7507C26.1987 17.7507 26.3893 17.8296 26.53 17.97Z" fill="#E3E7EB"/>
</svg>
