<svg width="17" height="17" viewBox="0 0 17 17" fill="none" xmlns="http://www.w3.org/2000/svg">
<path fill-rule="evenodd" clip-rule="evenodd" d="M3.15563 5.81198C3.30504 5.66275 3.50758 5.57893 3.71875 5.57893C3.92992 5.57893 4.13246 5.66275 4.28188 5.81198L8.5 10.0301L12.7181 5.81198C12.7911 5.73368 12.8791 5.67089 12.9768 5.62733C13.0746 5.58378 13.1801 5.56036 13.2871 5.55847C13.3941 5.55659 13.5003 5.57627 13.5996 5.61635C13.6988 5.65643 13.7889 5.71608 13.8646 5.79175C13.9403 5.86742 13.9999 5.95755 14.04 6.05678C14.0801 6.156 14.0998 6.26229 14.0979 6.36928C14.096 6.47628 14.0726 6.5818 14.029 6.67955C13.9855 6.7773 13.9227 6.86527 13.8444 6.93823L9.06313 11.7195C8.91371 11.8687 8.71117 11.9525 8.5 11.9525C8.28883 11.9525 8.08629 11.8687 7.93688 11.7195L3.15563 6.93823C3.0064 6.78881 2.92258 6.58627 2.92258 6.3751C2.92258 6.16393 3.0064 5.96139 3.15563 5.81198Z" fill="#808392"/>
</svg>
