<svg width="136" height="136" viewBox="0 0 136 136" fill="none" xmlns="http://www.w3.org/2000/svg">
<g clip-path="url(#clip0_2733_1655)">
<path d="M75.4731 88.9604C69.4856 86.3338 61.4919 88.4757 57.6198 93.7442C53.7532 99.013 55.4681 105.413 61.4511 108.042C67.4374 110.671 75.4311 108.529 79.3044 103.259C83.1727 97.9895 81.4578 91.5895 75.4731 88.9604ZM55.003 88.3415C57.5519 82.5717 54.6523 76.9225 48.5307 75.7267C42.409 74.5308 35.3815 78.2401 32.8326 84.0099C30.2887 89.7784 33.1849 95.4285 39.3049 96.6248C45.4304 97.8214 52.4579 94.1121 55.003 88.3415ZM43.753 67.091C46.315 62.025 43.9689 56.804 38.5104 55.4305C33.0532 54.0548 26.5547 57.0458 23.9911 62.1123C21.4275 67.1788 23.7748 72.3976 29.2316 73.7716C34.6884 75.1456 41.1906 72.1554 43.753 67.091ZM43.2237 51.6376C48.4724 53.0637 54.8034 50.2895 57.3628 45.4479C59.9235 40.6042 57.7476 35.5239 52.5009 34.099C47.2539 32.6723 40.9225 35.4449 38.363 40.2865C35.8007 45.1306 37.9767 50.2109 43.2237 51.6376ZM79.7494 34.6223C83.2384 31.4725 82.6001 27.2926 78.3211 25.2825C74.0455 23.2715 67.7418 24.1961 64.2506 27.3446C60.7578 30.4935 61.3982 34.6746 65.6772 36.6848C69.9562 38.6949 76.2599 37.7703 79.7494 34.6223Z" fill="white"/>
<path d="M102.523 60.6199C98.6235 60.5261 95.2583 60.443 93.8315 58.546C93.005 57.4461 92.7136 55.5832 92.9293 53.0205C99.6465 42.2323 109.437 25.1256 107.588 19.7356C106.849 17.5808 102.509 15.3741 100.215 15.9887L100.037 16.0438C97.5998 16.8793 94.6859 21.1802 91.8247 26.7132C91.2121 25.7838 90.5112 24.9156 89.7318 24.1209C83.5173 17.9347 73.0448 16.2377 61.0017 19.4646C51.6382 21.9736 41.9038 27.3482 32.8564 35.0061C21.2432 44.8358 14.8173 60.5666 16.487 75.0842C17.7247 85.8644 23.7671 101.051 45.5161 112.203C55.1607 117.151 68.4192 117.745 82.8445 113.88L82.8496 113.879C94.4299 110.776 105.472 105.054 113.15 98.1861C121.729 90.5067 125.333 82.0996 123.3 74.5103C119.689 61.0355 109.766 60.7955 102.523 60.6199ZM100.887 18.4946C101.941 18.2121 104.859 19.7757 105.133 20.5761C106.698 25.1398 94.5511 46.056 86.1132 58.8487L83.7854 57.7123L82.2622 56.9656C87.2078 42.4659 96.3058 20.0622 100.887 18.4946ZM79.4993 62.9593L81.2608 59.3628L84.8285 61.1105L83.0715 64.7039L79.4993 62.9593ZM110.843 95.6062C103.556 102.128 93.0285 107.57 81.9543 110.538L81.951 110.539C68.3526 114.182 55.9745 113.68 47.0942 109.125C26.7036 98.6724 21.0627 84.6298 19.9192 74.6892C18.3807 61.2895 24.3362 46.7501 35.0945 37.6455C43.7534 30.3155 53.0229 25.1836 61.8969 22.8058C72.5601 19.9486 82.0512 21.3571 87.2894 26.573C88.4171 27.6943 89.3155 28.9755 90.0145 30.3817C84.8986 41.2118 80.3313 54.5573 79.4642 57.1281L76.2502 63.6902C73.8079 64.3178 71.654 66.0354 71.5911 68.8079C71.3526 78.9971 66.7531 86.5088 66.7531 86.5088C66.7531 86.5088 81.5631 79.228 83.6142 74.9148C84.7252 72.5795 84.9016 70.0972 84.3282 68.0306L87.6938 61.1593C88.1893 60.4159 88.9236 59.3006 89.824 57.9099C90.0966 58.9541 90.4955 59.8678 91.0637 60.6251C93.4976 63.8619 97.8389 63.9664 102.436 64.0774C109.604 64.2517 117.016 64.4304 119.957 75.406C121.637 81.6701 118.398 88.8444 110.843 95.6062Z" fill="white"/>
<path d="M108.231 70.9221C102.245 68.2951 94.2498 70.4374 90.3794 75.7054C86.509 80.9735 88.226 87.3746 94.2107 90.0038C100.195 92.6329 108.19 90.4889 112.062 85.2204C115.934 79.952 114.217 73.5491 108.231 70.9221ZM109.113 83.9246C106.297 87.7607 100.474 89.3212 96.1182 87.4067C91.7628 85.4923 90.5127 80.8335 93.3295 76.9991C96.1462 73.1647 101.968 71.603 106.325 73.517C110.682 75.431 111.93 80.0885 109.113 83.9246Z" fill="white"/>
</g>
<defs>
<clipPath id="clip0_2733_1655">
<rect width="110.688" height="110.688" fill="white" transform="translate(0 28.6481) rotate(-15)"/>
</clipPath>
</defs>
</svg>
