<svg width="48" height="48" viewBox="0 0 48 48" fill="none" xmlns="http://www.w3.org/2000/svg">
<path d="M44.8561 8.34577L30.9 4.44202L16.9031 8.38477L3.88678 4.69233C3.60786 4.61319 3.31439 4.59982 3.02943 4.65325C2.74448 4.70669 2.47579 4.82547 2.24449 5.00028C2.01319 5.17509 1.82558 5.40115 1.6964 5.66071C1.56722 5.92027 1.49999 6.20625 1.5 6.49617V38.4274C1.50137 38.9167 1.66163 39.3924 1.95664 39.7827C2.25166 40.1731 2.66549 40.4571 3.13584 40.592L16.8999 44.4967L30.9029 40.5523L44.1201 44.2494C44.3987 44.3273 44.6917 44.3397 44.9759 44.2855C45.2602 44.2314 45.528 44.1122 45.7585 43.9372C45.989 43.7623 46.1759 43.5364 46.3045 43.2772C46.4332 43.018 46.5001 42.7326 46.5 42.4432V10.5126C46.4988 10.0218 46.3376 9.54482 46.041 9.15383C45.7444 8.76284 45.3284 8.47916 44.8561 8.34577ZM15.2812 40.9186L4.5 37.8601V7.98464L15.2812 11.0431V40.9186ZM29.4014 37.858L18.2812 40.9904V11.1133L29.4014 7.98089V37.858ZM43.5 40.9603L32.4014 37.8562V7.97705L43.5 11.0812V40.9603Z" fill="#6099FE"/>
</svg>
