<svg width="48" height="48" viewBox="0 0 48 48" fill="none" xmlns="http://www.w3.org/2000/svg">
<path d="M24.0004 3.40771C24.5308 3.40781 25.0485 3.57124 25.4828 3.87549C25.9172 4.17981 26.2479 4.61045 26.4291 5.10889L30.8139 17.1665L30.8198 17.1812L30.8334 17.186L42.8911 21.5708C43.3895 21.7521 43.8201 22.0828 44.1245 22.5171C44.4288 22.9516 44.5922 23.47 44.5922 24.0005C44.5921 24.5308 44.4287 25.0485 44.1245 25.4829C43.8201 25.9173 43.3895 26.2479 42.8911 26.4292L30.8334 30.814L30.8198 30.8198L30.8139 30.8335L26.4291 42.8911C26.2479 43.3895 25.9172 43.8202 25.4828 44.1245C25.0485 44.4288 24.5308 44.5922 24.0004 44.5923C23.4699 44.5923 22.9515 44.4288 22.517 44.1245C22.0827 43.8202 21.752 43.3895 21.5707 42.8911L17.186 30.8335L17.1811 30.8198L17.1664 30.814L5.10883 26.4292C4.61039 26.2479 4.17975 25.9173 3.87543 25.4829C3.57118 25.0485 3.40775 24.5308 3.40765 24.0005C3.40765 23.47 3.5711 22.9516 3.87543 22.5171C4.17975 22.0827 4.6104 21.7521 5.10883 21.5708L17.1664 17.186L17.1811 17.1812L17.186 17.1665L21.5707 5.10889C21.752 4.61046 22.0827 4.17981 22.517 3.87549C22.9515 3.57116 23.4699 3.40771 24.0004 3.40771ZM24.0004 5.60791C23.9208 5.60791 23.8423 5.63137 23.7758 5.67529C23.7095 5.71921 23.6576 5.78179 23.6264 5.85498L23.6254 5.85596L19.062 18.4077C19.0073 18.5579 18.9201 18.6941 18.8071 18.8071C18.694 18.9202 18.5579 19.0074 18.4077 19.062L5.8559 23.6255L5.85492 23.6265C5.78173 23.6576 5.71915 23.7095 5.67523 23.7759C5.63131 23.8423 5.60785 23.9208 5.60785 24.0005C5.60794 24.08 5.63139 24.1578 5.67523 24.2241C5.71915 24.2905 5.78171 24.3424 5.85492 24.3735L5.8559 24.3745L18.4077 28.9478C18.5577 29.0023 18.6941 29.0888 18.8071 29.2017C18.9201 29.3147 19.0073 29.4518 19.062 29.6021L23.6254 42.1528L23.6264 42.1548C23.6576 42.228 23.7094 42.2906 23.7758 42.3345C23.8423 42.3784 23.9208 42.4019 24.0004 42.4019C24.0799 42.4018 24.1577 42.3783 24.2241 42.3345C24.2738 42.3016 24.3152 42.258 24.3461 42.2075L24.3735 42.1548L24.3745 42.1528L28.9379 29.6021C28.9925 29.4518 29.0797 29.3147 29.1928 29.2017C29.3057 29.0888 29.4422 29.0023 29.5922 28.9478L42.144 24.3833L42.1645 24.3765V24.3628C42.229 24.3311 42.2848 24.2843 42.3246 24.2241C42.3685 24.1578 42.3919 24.08 42.392 24.0005C42.392 23.9208 42.3686 23.8423 42.3246 23.7759C42.2807 23.7096 42.2181 23.6576 42.145 23.6265L42.144 23.6255L29.5922 19.062C29.442 19.0074 29.3058 18.9201 29.1928 18.8071C29.0798 18.6941 28.9925 18.5579 28.9379 18.4077L24.3745 5.85596L24.3735 5.85498L24.3461 5.80225C24.3152 5.75171 24.2739 5.70825 24.2241 5.67529C24.1577 5.63145 24.0799 5.608 24.0004 5.60791Z" fill="#6099FE" stroke="#6099FE" stroke-width="0.0625"/>
<circle cx="7.5" cy="40.5" r="3.5" stroke="#6099FE" stroke-width="2"/>
<g clip-path="url(#clip0_2779_10846)">
<path d="M44.4375 5.50006C44.4384 5.61542 44.4033 5.72819 44.3372 5.8227C44.271 5.91721 44.1771 5.98876 44.0684 6.0274L41.838 6.83846L41.0273 9.06842C40.9874 9.17607 40.9154 9.26891 40.8212 9.33447C40.7269 9.40003 40.6148 9.43518 40.5 9.43518C40.3852 9.43518 40.2731 9.40003 40.1788 9.33447C40.0846 9.26891 40.0126 9.17607 39.9727 9.06842L39.162 6.83811L36.9316 6.0274C36.824 5.98744 36.7311 5.9155 36.6656 5.82123C36.6 5.72696 36.5649 5.61489 36.5649 5.50006C36.5649 5.38523 36.6 5.27316 36.6656 5.17889C36.7311 5.08462 36.824 5.01267 36.9316 4.97272L39.162 4.16201L39.9727 1.9317C40.0126 1.82405 40.0846 1.73121 40.1788 1.66565C40.2731 1.60008 40.3852 1.56494 40.5 1.56494C40.6148 1.56494 40.7269 1.60008 40.8212 1.66565C40.9154 1.73121 40.9874 1.82405 41.0273 1.9317L41.8384 4.16201L44.0684 4.97272C44.1771 5.01136 44.271 5.08291 44.3372 5.17742C44.4033 5.27193 44.4384 5.3847 44.4375 5.50006Z" fill="white"/>
</g>
<defs>
<clipPath id="clip0_2779_10846">
<rect width="9" height="9" fill="white" transform="translate(36 1)"/>
</clipPath>
</defs>
</svg>
