<svg width="48" height="48" viewBox="0 0 48 48" fill="none" xmlns="http://www.w3.org/2000/svg">
<path d="M26 42H42M30 10L38 18M42.348 13.624C42.8716 13.1006 43.2869 12.4791 43.5703 11.7952C43.8537 11.1112 43.9997 10.3781 43.9998 9.63774C43.9998 8.89738 43.8541 8.16425 43.5709 7.48021C43.2876 6.79616 42.8724 6.17461 42.349 5.65103C41.8255 5.12745 41.2041 4.7121 40.5201 4.42869C39.8362 4.14528 39.1031 3.99936 38.3627 3.99927C37.6223 3.99917 36.8892 4.14491 36.2052 4.42815C35.5211 4.71138 34.8996 5.12658 34.376 5.65003L7.68399 32.348C7.21963 32.811 6.87622 33.3811 6.68399 34.008L4.04199 42.712C3.9903 42.885 3.9864 43.0687 4.03069 43.2437C4.07499 43.4187 4.16583 43.5785 4.29358 43.706C4.42134 43.8336 4.58123 43.9242 4.75631 43.9682C4.93138 44.0122 5.11511 44.008 5.28799 43.956L13.994 41.316C14.6203 41.1255 15.1903 40.7842 15.654 40.322L42.348 13.624Z" stroke="#6099FE" stroke-width="3" stroke-linecap="round" stroke-linejoin="round"/>
</svg>
