<svg width="43" height="43" viewBox="0 0 43 43" fill="none" xmlns="http://www.w3.org/2000/svg">
<rect width="43" height="43" rx="6" fill="#6099FE"/>
<path d="M27.2208 12.9152C28.0981 12.6228 29.2427 12.533 30.0646 13.3549C30.8865 14.1768 30.7956 15.3224 30.5043 16.1986C30.2014 17.1052 29.6145 17.9824 29.0202 18.5767L25.1655 22.4314L27.8652 30.5304C27.9956 30.9208 28.0146 31.3399 27.9202 31.7405C27.8257 32.1412 27.6215 32.5076 27.3305 32.7987L25.8871 34.242C25.8113 34.3178 25.7199 34.3761 25.6192 34.413C25.5186 34.4499 25.4111 34.4644 25.3043 34.4556C25.1974 34.4467 25.0938 34.4147 25.0006 34.3618C24.9074 34.3089 24.8268 34.2363 24.7645 34.1491L19.9719 27.4391L17.2273 29.4004V32.1533C17.2275 32.2996 17.1843 32.4426 17.1031 32.5642C17.0219 32.6858 16.9064 32.7806 16.7713 32.8366C16.6362 32.8925 16.4875 32.9071 16.344 32.8784C16.2006 32.8497 16.069 32.7791 15.9657 32.6755L10.744 27.4537C10.6404 27.3505 10.5697 27.2188 10.5411 27.0754C10.5124 26.932 10.5269 26.7833 10.5829 26.6482C10.6388 26.513 10.7336 26.3975 10.8552 26.3164C10.9769 26.2352 11.1199 26.1919 11.2661 26.1921L14.0201 26.1932L15.9804 23.4475L9.27037 18.655C9.18317 18.5926 9.11058 18.5121 9.05765 18.4188C9.00473 18.3256 8.97273 18.222 8.96389 18.1152C8.95504 18.0083 8.96956 17.9009 9.00644 17.8002C9.04331 17.6995 9.10166 17.6081 9.17742 17.5323L10.6207 16.089C10.9118 15.7979 11.2782 15.5937 11.6789 15.4993C12.0796 15.4048 12.4986 15.4239 12.8891 15.5543L20.9881 18.2539L24.8428 14.3992C25.436 13.806 26.3164 13.2181 27.2208 12.9152ZM27.6866 14.3167C27.0265 14.536 26.3373 14.9935 25.8871 15.4436L21.7097 19.621C21.6128 19.7179 21.4909 19.7859 21.3575 19.8175C21.2242 19.849 21.0847 19.8428 20.9546 19.7996L12.4202 16.9548C12.2901 16.9115 12.1506 16.9054 12.0173 16.9369C11.8839 16.9684 11.762 17.0365 11.6651 17.1333L10.838 17.9605L17.4393 22.6758C17.5984 22.7895 17.7059 22.9616 17.7382 23.1545C17.7705 23.3473 17.725 23.5451 17.6117 23.7044L15.0008 27.3597C14.9324 27.4558 14.842 27.534 14.7371 27.588C14.6323 27.642 14.5161 27.67 14.3982 27.6699L13.0499 27.6709L15.7506 30.3716L15.7496 29.0213C15.7495 28.9036 15.7774 28.7877 15.8312 28.683C15.885 28.5784 15.963 28.4881 16.0587 28.4197L19.7139 25.8088C19.7929 25.7524 19.8822 25.7121 19.9768 25.6902C20.0714 25.6683 20.1693 25.6653 20.2651 25.6813C20.3608 25.6973 20.4524 25.732 20.5347 25.7835C20.6171 25.8349 20.6884 25.9021 20.7447 25.9811L25.459 32.5815L26.2861 31.7544C26.383 31.6575 26.451 31.5355 26.4825 31.4022C26.5141 31.2688 26.5079 31.1293 26.4647 30.9993L23.6198 22.4648C23.5766 22.3348 23.5704 22.1953 23.602 22.0619C23.6335 21.9286 23.7015 21.8066 23.7984 21.7097L27.9759 17.5323C28.427 17.0811 28.8834 16.395 29.1027 15.7329C29.3325 15.0436 29.2427 14.6217 29.0202 14.3992C28.7978 14.1768 28.3769 14.0859 27.6866 14.3167Z" fill="white"/>
</svg>
