<svg width="43" height="43" viewBox="0 0 43 43" fill="none" xmlns="http://www.w3.org/2000/svg">
<rect width="43" height="43" rx="6" fill="#6099FE"/>
<path d="M20.5312 34.5C19.9687 34.5 19.4846 34.3125 19.0787 33.9375C18.6729 33.5625 18.4279 33.1042 18.3437 32.5625L18.0625 30.5C17.7916 30.3958 17.5366 30.2708 17.2975 30.125C17.0583 29.9792 16.8237 29.8229 16.5937 29.6562L14.6562 30.4688C14.1354 30.6979 13.6146 30.7188 13.0937 30.5312C12.5729 30.3438 12.1666 30.0104 11.875 29.5312L10.4062 26.9688C10.1146 26.4896 10.0312 25.9792 10.1562 25.4375C10.2812 24.8958 10.5625 24.4479 11 24.0938L12.6562 22.8438C12.6354 22.6979 12.625 22.5571 12.625 22.4212V21.5775C12.625 21.4425 12.6354 21.3021 12.6562 21.1562L11 19.9062C10.5625 19.5521 10.2812 19.1042 10.1562 18.5625C10.0312 18.0208 10.1146 17.5104 10.4062 17.0312L11.875 14.4688C12.1666 13.9896 12.5729 13.6563 13.0937 13.4688C13.6146 13.2813 14.1354 13.3021 14.6562 13.5312L16.5937 14.3438C16.8229 14.1771 17.0625 14.0208 17.3125 13.875C17.5625 13.7292 17.8125 13.6042 18.0625 13.5L18.3437 11.4375C18.4271 10.8958 18.6721 10.4375 19.0787 10.0625C19.4854 9.6875 19.9696 9.5 20.5312 9.5H23.4687C24.0312 9.5 24.5158 9.6875 24.9225 10.0625C25.3291 10.4375 25.5737 10.8958 25.6562 11.4375L25.9375 13.5C26.2083 13.6042 26.4637 13.7292 26.7037 13.875C26.9437 14.0208 27.1779 14.1771 27.4062 14.3438L29.3437 13.5312C29.8646 13.3021 30.3854 13.2813 30.9062 13.4688C31.4271 13.6563 31.8333 13.9896 32.125 14.4688L33.5937 17.0312C33.8854 17.5104 33.9687 18.0208 33.8437 18.5625C33.7187 19.1042 33.4375 19.5521 33 19.9062L31.3437 21.1562C31.3646 21.3021 31.375 21.4429 31.375 21.5788V22.4212C31.375 22.5571 31.3541 22.6979 31.3125 22.8438L32.9687 24.0938C33.4062 24.4479 33.6875 24.8958 33.8125 25.4375C33.9375 25.9792 33.8541 26.4896 33.5625 26.9688L32.0625 29.5312C31.7708 30.0104 31.3646 30.3438 30.8437 30.5312C30.3229 30.7188 29.8021 30.6979 29.2812 30.4688L27.4062 29.6562C27.1771 29.8229 26.9375 29.9792 26.6875 30.125C26.4375 30.2708 26.1875 30.3958 25.9375 30.5L25.6562 32.5625C25.5729 33.1042 25.3283 33.5625 24.9225 33.9375C24.5166 34.3125 24.0321 34.5 23.4687 34.5H20.5312ZM22.0625 26.375C23.2708 26.375 24.3021 25.9479 25.1562 25.0938C26.0104 24.2396 26.4375 23.2083 26.4375 22C26.4375 20.7917 26.0104 19.7604 25.1562 18.9062C24.3021 18.0521 23.2708 17.625 22.0625 17.625C20.8333 17.625 19.7966 18.0521 18.9525 18.9062C18.1083 19.7604 17.6866 20.7917 17.6875 22C17.6883 23.2083 18.1104 24.2396 18.9537 25.0938C19.7971 25.9479 20.8333 26.375 22.0625 26.375Z" fill="white"/>
</svg>
