<svg width="43" height="43" viewBox="0 0 43 43" fill="none" xmlns="http://www.w3.org/2000/svg">
<rect width="43" height="43" rx="6" fill="#6099FE"/>
<path d="M13.8759 11.3784C13.658 11.3863 13.4516 11.4781 13.3 11.6348C13.1483 11.7915 13.0632 12.0008 13.0625 12.2188C13.0625 14.4412 13.5688 15.8688 14.6656 16.6907C15.7591 17.5125 17.1091 17.6863 18.7646 18.098C18.8888 18.129 19.0184 18.1313 19.1437 18.1048C19.2689 18.0783 19.3865 18.0236 19.4874 17.9449C19.5884 17.8662 19.6701 17.7655 19.7265 17.6506C19.7828 17.5356 19.8122 17.4093 19.8125 17.2813C19.8125 15.0588 19.3063 13.6312 18.2094 12.8094C17.1159 11.9876 15.7659 11.8138 14.1104 11.402C14.0337 11.3832 13.9548 11.3753 13.8759 11.3784ZM27.4366 11.3784C27.3572 11.3751 27.2776 11.3831 27.2004 11.402C25.5466 11.8155 24.1966 11.9876 23.1014 12.8094C22.0063 13.6312 21.5 15.0588 21.5 17.2813C21.5003 17.4093 21.5297 17.5356 21.586 17.6506C21.6423 17.7655 21.7241 17.8662 21.8251 17.9449C21.926 18.0236 22.0436 18.0783 22.1688 18.1048C22.2941 18.1313 22.4237 18.129 22.5479 18.098C24.2034 17.6846 25.5517 17.5125 26.6486 16.6907C27.7454 15.8688 28.25 14.4412 28.25 12.2188C28.2493 12.0008 28.1642 11.7915 28.0125 11.6348C27.8609 11.4781 27.6545 11.3863 27.4366 11.3784ZM13.8759 18.1284C13.658 18.1363 13.4516 18.2281 13.3 18.3848C13.1483 18.5415 13.0632 18.7508 13.0625 18.9688C13.0625 21.1912 13.5688 22.6188 14.6656 23.4407C15.7591 24.2625 17.1091 24.4363 18.7646 24.848C18.8888 24.879 19.0184 24.8813 19.1437 24.8548C19.2689 24.8283 19.3865 24.7736 19.4874 24.6949C19.5884 24.6162 19.6701 24.5155 19.7265 24.4006C19.7828 24.2856 19.8122 24.1593 19.8125 24.0313C19.8125 21.8088 19.3063 20.3812 18.2094 19.5594C17.1159 18.7376 15.7659 18.5638 14.1104 18.152C14.0337 18.1332 13.9548 18.1253 13.8759 18.1284ZM27.4366 18.1284C27.3572 18.1251 27.2776 18.1331 27.2004 18.152C25.5466 18.5655 24.1966 18.7376 23.1014 19.5594C22.0063 20.3812 21.5 21.8088 21.5 24.0313C21.5003 24.1593 21.5297 24.2856 21.586 24.4006C21.6423 24.5155 21.7241 24.6162 21.8251 24.6949C21.926 24.7736 22.0436 24.8283 22.1688 24.8548C22.2941 24.8813 22.4237 24.879 22.5479 24.848C24.2034 24.4346 25.5517 24.2625 26.6486 23.4407C27.7454 22.6188 28.25 21.1912 28.25 18.9688C28.2493 18.7508 28.1642 18.5415 28.0125 18.3848C27.8609 18.2281 27.6545 18.1363 27.4366 18.1284ZM20.6562 26.5625C20.4325 26.5625 20.2179 26.6514 20.0596 26.8097C19.9014 26.9679 19.8125 27.1825 19.8125 27.4063V32.4688C19.8125 32.6926 19.9014 32.9072 20.0596 33.0654C20.2179 33.2236 20.4325 33.3125 20.6562 33.3125C20.88 33.3125 21.0946 33.2236 21.2529 33.0654C21.4111 32.9072 21.5 32.6926 21.5 32.4688V27.4063C21.5 27.1825 21.4111 26.9679 21.2529 26.8097C21.0946 26.6514 20.88 26.5625 20.6562 26.5625Z" fill="white"/>
</svg>
