<svg width="43" height="43" viewBox="0 0 43 43" fill="none" xmlns="http://www.w3.org/2000/svg">
<rect width="43" height="43" rx="6" fill="#6099FE"/>
<path d="M20.181 9.5608C20.6414 9.38854 21.1444 9.36609 21.6183 9.49663L21.819 9.5608L29.9857 12.6233C30.3997 12.7786 30.7612 13.0483 31.0278 13.4011C31.2945 13.7539 31.4554 14.1752 31.4918 14.616L31.5 14.8085V21.0653C31.5 22.9558 30.9895 24.8112 30.0225 26.4357C29.0556 28.0602 27.668 29.3935 26.0062 30.2948L25.6958 30.457L21.7828 32.4135C21.5674 32.521 21.332 32.583 21.0915 32.5954C20.851 32.6079 20.6106 32.5706 20.3852 32.4858L20.2172 32.4135L16.3042 30.457C14.6132 29.6115 13.1819 28.3251 12.1613 26.7337C11.1408 25.1423 10.5688 23.3048 10.5058 21.4153L10.5 21.0653V14.8085C10.5 14.3664 10.6256 13.9335 10.8621 13.5601C11.0985 13.1867 11.4362 12.8881 11.8358 12.6991L12.0143 12.6233L20.181 9.5608ZM21 11.746L12.8333 14.8085V21.0653C12.8334 22.5295 13.227 23.9667 13.9731 25.2265C14.7192 26.4864 15.7903 27.5224 17.0742 28.2263L17.3483 28.3698L21 30.1956L24.6517 28.3698C25.9615 27.715 27.0712 26.72 27.8645 25.4891C28.6578 24.2582 29.1056 22.8367 29.1608 21.3733L29.1667 21.0653V14.8085L21 11.746ZM25.0052 17.0671C25.2151 16.8579 25.4968 16.7364 25.7931 16.7274C26.0894 16.7183 26.378 16.8224 26.6003 17.0184C26.8226 17.2145 26.962 17.4878 26.9901 17.7829C27.0182 18.0779 26.933 18.3726 26.7517 18.6071L26.6548 18.7168L20.5485 24.8243C20.3261 25.0467 20.0297 25.1797 19.7157 25.1979C19.4017 25.2162 19.0919 25.1185 18.8452 24.9235L18.7332 24.8243L15.9285 22.0196C15.717 21.8102 15.5936 21.5278 15.5835 21.2303C15.5734 20.9329 15.6774 20.6428 15.8742 20.4195C16.071 20.1961 16.3457 20.0565 16.6421 20.0291C16.9384 20.0016 17.2341 20.0885 17.4685 20.272L17.5782 20.3688L19.6408 22.4315L25.0052 17.0671Z" fill="white"/>
</svg>
