<svg width="43" height="43" viewBox="0 0 43 43" fill="none" xmlns="http://www.w3.org/2000/svg">
<rect width="43" height="43" rx="6" fill="#6099FE"/>
<path d="M13.8333 26.8333C13.8333 27.4522 14.0791 28.0457 14.5167 28.4832C14.9543 28.9208 15.5478 29.1667 16.1666 29.1667C16.7855 29.1667 17.379 28.9208 17.8166 28.4832C18.2541 28.0457 18.5 27.4522 18.5 26.8333C18.5 26.2145 18.2541 25.621 17.8166 25.1834C17.379 24.7458 16.7855 24.5 16.1666 24.5C15.5478 24.5 14.9543 24.7458 14.5167 25.1834C14.0791 25.621 13.8333 26.2145 13.8333 26.8333ZM25.5 26.8333C25.5 27.4522 25.7458 28.0457 26.1834 28.4832C26.621 28.9208 27.2145 29.1667 27.8333 29.1667C28.4522 29.1667 29.0456 28.9208 29.4832 28.4832C29.9208 28.0457 30.1666 27.4522 30.1666 26.8333C30.1666 26.2145 29.9208 25.621 29.4832 25.1834C29.0456 24.7458 28.4522 24.5 27.8333 24.5C27.2145 24.5 26.621 24.7458 26.1834 25.1834C25.7458 25.621 25.5 26.2145 25.5 26.8333Z" stroke="white" stroke-width="2" stroke-linecap="round" stroke-linejoin="round"/>
<path d="M13.8333 26.8333H11.5V19.8333M11.5 19.8333L13.8333 14H24.3333L29 19.8333M11.5 19.8333H29M29 19.8333H30.1667C30.7855 19.8333 31.379 20.0792 31.8166 20.5168C32.2542 20.9543 32.5 21.5478 32.5 22.1667V26.8333H30.1667M25.5 26.8333H18.5M22 19.8333V14" stroke="white" stroke-width="2" stroke-linecap="round" stroke-linejoin="round"/>
</svg>
