<svg width="43" height="43" viewBox="0 0 43 43" fill="none" xmlns="http://www.w3.org/2000/svg">
<rect width="43" height="43" rx="6" fill="#6099FE"/>
<path d="M12.125 11.125C12.125 10.9178 12.2073 10.7191 12.3538 10.5726C12.5003 10.4261 12.699 10.3438 12.9062 10.3438H30.0938C30.301 10.3438 30.4997 10.4261 30.6462 10.5726C30.7927 10.7191 30.875 10.9178 30.875 11.125C30.875 11.3322 30.7927 11.5309 30.6462 11.6774C30.4997 11.8239 30.301 11.9062 30.0938 11.9062H27.75C27.75 12.3406 27.4344 12.6875 27.0391 12.6875H26.5781V15.1016C27.2422 15.2812 27.7344 15.8984 27.7344 16.6172C27.7344 17.1609 27.4531 17.6422 27.0289 17.9219L27.7477 18.9375H31.2547C31.3596 18.9367 31.4605 18.9772 31.5357 19.0503C31.6109 19.1235 31.6542 19.2233 31.6562 19.3281C31.6563 19.3797 31.646 19.4307 31.6262 19.4783C31.6064 19.5259 31.5773 19.5691 31.5407 19.6054C31.5041 19.6418 31.4607 19.6705 31.4129 19.6899C31.3652 19.7094 31.3141 19.7192 31.2625 19.7188H30.875V22.0625H31.2547C31.3596 22.0617 31.4605 22.1022 31.5357 22.1753C31.6109 22.2485 31.6542 22.3483 31.6562 22.4531C31.6542 22.558 31.6109 22.6578 31.5357 22.7309C31.4605 22.8041 31.3596 22.8446 31.2547 22.8438H30.4594C30.4705 22.9152 30.4611 22.9884 30.4324 23.0548C30.4036 23.1211 30.3566 23.178 30.2969 23.2188C30.2266 23.2656 30.1484 23.2891 30.0703 23.2891C29.9453 23.2891 29.8281 23.2344 29.75 23.125L29.5508 22.8438H22.793L22.5938 23.125C22.5156 23.2344 22.3984 23.2891 22.2734 23.2891C22.1953 23.2891 22.1172 23.2656 22.0469 23.2188C21.9871 23.178 21.9402 23.1211 21.9114 23.0548C21.8826 22.9884 21.8733 22.9152 21.8844 22.8438H21.1203C21.0154 22.8446 20.9145 22.8041 20.8393 22.7309C20.7641 22.6578 20.7208 22.558 20.7188 22.4531C20.7188 22.2391 20.9 22.0625 21.1203 22.0625H21.5V19.7188H21.1203C21.0154 19.7196 20.9145 19.6791 20.8393 19.6059C20.7641 19.5328 20.7208 19.433 20.7188 19.3281C20.7188 19.1141 20.9 18.9375 21.1203 18.9375H24.5969L25.3156 17.9219C25.099 17.78 24.9211 17.5864 24.7978 17.3587C24.6745 17.131 24.6098 16.8762 24.6094 16.6172C24.6094 16.3984 24.7891 16.2266 25 16.2266C25.2188 16.2266 25.3906 16.3984 25.3906 16.6172C25.3906 16.8984 25.5414 17.1469 25.7664 17.2844L25.8328 17.1906C25.85 17.1621 25.8707 17.1358 25.8945 17.1125C25.9309 17.076 25.9741 17.0471 26.0217 17.0274C26.0693 17.0077 26.1204 16.9976 26.1719 16.9977C26.2734 16.9969 26.375 17.0367 26.4492 17.1125C26.4733 17.1358 26.4943 17.162 26.5117 17.1906L26.5773 17.2844C26.8023 17.1469 26.9531 16.8984 26.9531 16.6172C26.9531 16.1875 26.6172 15.8438 26.1875 15.8359C26.0547 15.8359 25.9297 15.7656 25.8594 15.6562C25.8132 15.5957 25.7885 15.5215 25.7891 15.4453C25.7891 15.4141 25.7891 15.3906 25.7969 15.3594V12.6875H25.3359C24.9406 12.6875 24.625 12.3406 24.625 11.9062H19.9375V28.3125H20.5234C21.0625 28.3125 21.5 28.75 21.5 29.2891V29.875H30.8828C31.7422 29.875 32.4375 30.5742 32.4375 31.4375H10.5625C10.5625 30.5742 11.2578 29.875 12.1172 29.875H12.9062V29.2891C12.9062 28.75 13.3438 28.3125 13.8828 28.3125H14.4688V11.9062H12.9062C12.699 11.9062 12.5003 11.8239 12.3538 11.6774C12.2073 11.5309 12.125 11.3322 12.125 11.125ZM15.25 13.4688V15.1805L18.6734 13.4688H15.25ZM15.7328 28.3125H19.1562V26.6008L15.7328 28.3125ZM18.6734 25.9688H15.25V27.6805L18.6734 25.9688ZM15.7328 15.8125H19.1562V14.1008L15.7328 15.8125ZM18.6734 16.5938H15.25V18.3055L18.6734 16.5938ZM15.7328 18.9375H19.1562V17.2258L15.7328 18.9375ZM18.6734 19.7188H15.25V21.4305L18.6734 19.7188ZM15.7328 22.0625H19.1562V20.3508L15.7328 22.0625ZM18.6734 22.8438H15.25V24.5555L18.6734 22.8438ZM15.7328 25.1875H19.1562V23.4758L15.7328 25.1875ZM26.0953 18.1781L25.5578 18.9375H26.7859L26.2484 18.1781C26.1974 18.1806 26.1463 18.1806 26.0953 18.1781ZM24.0438 19.7188H22.2812V22.0625H22.3844L24.0438 19.7188ZM23.3461 22.0625H28.9977L27.3391 19.7188H25.0047L23.3461 22.0625ZM28.3008 19.7188L29.9594 22.0625H30.0938V19.7188H28.3008Z" fill="white"/>
</svg>
