<svg width="43" height="43" viewBox="0 0 43 43" fill="none" xmlns="http://www.w3.org/2000/svg">
<rect width="43" height="43" rx="6" fill="#6099FE"/>
<path d="M13.3333 30.7501C12.7375 30.7501 12.2276 30.5381 11.8036 30.1142C11.3797 29.6902 11.1673 29.18 11.1666 28.5834V16.6667C11.1666 16.0709 11.379 15.561 11.8036 15.1371C12.2283 14.7131 12.7382 14.5008 13.3333 14.5001H17.6666V12.3334C17.6666 11.7376 17.879 11.2277 18.3036 10.8037C18.7283 10.3798 19.2382 10.1675 19.8333 10.1667H24.1666C24.7625 10.1667 25.2727 10.3791 25.6974 10.8037C26.122 11.2284 26.334 11.7383 26.3333 12.3334V14.5001H30.6666C31.2625 14.5001 31.7727 14.7124 32.1974 15.1371C32.622 15.5617 32.834 16.0716 32.8333 16.6667V28.5834C32.8333 29.1792 32.6213 29.6895 32.1974 30.1142C31.7734 30.5388 31.2632 30.7508 30.6666 30.7501H13.3333ZM19.8333 14.5001H24.1666V12.3334H19.8333V14.5001ZM30.6666 24.2501H25.25V25.3334C25.25 25.6404 25.146 25.8978 24.938 26.1058C24.73 26.3138 24.4728 26.4175 24.1666 26.4167H19.8333C19.5263 26.4167 19.2692 26.3127 19.062 26.1047C18.8547 25.8967 18.7507 25.6396 18.75 25.3334V24.2501H13.3333V28.5834H30.6666V24.2501ZM20.9166 24.2501H23.0833V22.0834H20.9166V24.2501ZM13.3333 22.0834H18.75V21.0001C18.75 20.6931 18.854 20.436 19.062 20.2287C19.27 20.0215 19.5271 19.9175 19.8333 19.9167H24.1666C24.4736 19.9167 24.731 20.0207 24.939 20.2287C25.147 20.4367 25.2507 20.6939 25.25 21.0001V22.0834H30.6666V16.6667H13.3333V22.0834Z" fill="white"/>
</svg>
