<svg width="134" height="74" viewBox="0 0 134 74" fill="none" xmlns="http://www.w3.org/2000/svg">
<path d="M119.126 7.2723C119.283 8.46186 119.123 9.65391 118.994 10.8397C118.861 12.0518 118.844 13.215 118.982 14.4247C119.137 15.796 118.589 16.7561 117.04 17.5546C115.625 18.2829 113.994 18.8106 112.471 19.4022C105.565 22.0822 98.706 24.8235 91.8005 27.5047C89.9325 28.2305 88.0766 28.9713 86.138 29.5943C84.1495 30.2335 82.1111 30.7838 80.0967 31.3767C79.1963 31.6412 79.5888 32.7192 80.503 32.4509C84.1598 31.3755 87.7649 30.3275 91.253 28.9776C94.9322 27.5536 98.5975 26.1121 102.261 24.6681C105.916 23.2278 109.573 21.7876 113.24 20.3636C115.859 19.3471 119.827 18.318 120.449 15.8975C120.635 15.173 120.493 14.4648 120.414 13.739C120.338 13.0433 120.376 12.3451 120.438 11.6507C120.569 10.1942 120.848 8.73261 120.655 7.2723C120.562 6.56534 119.032 6.55782 119.126 7.2723Z" fill="white"/>
<path d="M79.6079 31.482C68.5463 31.205 57.4985 30.6697 46.4644 30.038C41.2909 29.7422 36.1208 29.3473 30.9421 29.1004C27.4248 28.9324 23.3944 29.0264 20.2816 27.6338C18.3259 26.7589 17.515 25.3362 17.663 23.6916C17.7784 22.4106 17.9815 21.0104 18.7459 19.8359C19.4139 18.8093 20.564 18.1738 22.1066 17.9883C24.2466 17.7301 26.638 17.9607 28.7917 18.0447C33.7243 18.2352 38.6292 18.6226 43.5411 18.976C49.2879 19.3897 55.0382 19.777 60.7937 20.1255C66.4769 20.4689 72.1721 20.7973 77.8673 21.0104C81.2228 21.1358 84.1943 20.5968 87.1986 19.5363C90.802 18.2653 94.3951 16.978 97.9899 15.6932C103.201 13.8293 108.408 11.9616 113.603 10.0763C115.706 9.31297 117.806 8.54835 119.898 7.77244C121.019 7.35629 122.196 6.97022 123.264 6.48261C124.007 6.14292 124.235 5.49989 124.092 4.87691C123.73 3.29878 121.595 2.74599 119.686 2.53917C117.15 2.26466 114.593 2.08165 112.042 1.90365C105.154 1.42106 98.2498 1.06006 91.3426 0.742931C84.9536 0.448363 78.5559 0.181373 72.1549 0.0522647C70.3299 0.0159138 68.4912 -0.0342247 66.6662 0.0334632C62.2778 0.197669 58.33 1.54892 54.4133 2.8751C49.2518 4.6212 43.9698 6.18554 38.7721 7.87398C33.5762 9.56116 28.4474 11.3398 23.3272 13.1436C19.8254 14.377 15.962 15.4162 13.55 17.7664C10.6817 20.5617 10.2599 24.7132 12.0212 27.9033C12.82 29.3511 14.1423 30.6472 16.0757 31.373C17.8954 32.0561 19.9511 32.293 21.9654 32.4472C27.1631 32.847 32.3728 33.183 37.5739 33.569C43.257 33.9902 48.9402 34.4076 54.6268 34.7937C60.1343 35.1685 65.635 35.6034 71.1425 35.9632C73.8094 36.1374 76.4934 36.249 79.1706 36.1537C80.4825 36.1073 81.8253 36.0522 83.0976 35.7977C84.8744 35.4417 86.5857 34.8877 88.2643 34.3437C93.6186 32.6089 98.8059 30.5883 103.931 28.5213C109.139 26.4217 114.302 24.2444 119.302 21.8866C121.038 21.0681 122.766 20.232 124.388 19.2969C125.419 18.7028 126.382 18.1375 126.55 17.1322C126.962 14.6716 123.231 13.9947 120.6 14.0925C119.621 14.1288 119.615 15.2432 120.6 15.2056C121.976 15.1542 124.254 15.1542 124.915 16.2786C125.083 16.5643 125.087 16.884 124.994 17.1836C124.963 17.2838 124.913 17.3791 124.866 17.4756C124.944 17.3114 124.916 17.3879 124.882 17.433C124.87 17.4493 124.854 17.4669 124.841 17.4819C124.724 17.6072 124.913 17.4205 124.822 17.5045C124.019 18.244 122.799 18.8043 121.757 19.3421C117.477 21.5482 112.93 23.4961 108.392 25.4039C103.098 27.6288 97.7282 29.7698 92.2482 31.744C90.1374 32.5036 88.0095 33.2482 85.8316 33.9012C84.3424 34.3475 82.8204 34.7937 81.209 34.9228C76.1146 35.3314 70.9721 34.8564 65.907 34.4515C60.3874 34.0103 54.8471 33.7019 49.3207 33.3108C43.7821 32.9185 38.247 32.5061 32.7137 32.0924C30.0658 31.8944 27.4196 31.6725 24.7683 31.5083C22.7161 31.3817 20.6346 31.3078 18.6409 30.9016C16.4734 30.4617 14.8533 29.5679 13.8134 28.0951C12.6565 26.4556 12.3294 24.4939 12.6169 22.6788C12.8923 20.9315 13.7618 19.1641 15.4197 17.8592C16.7316 16.8263 18.4051 16.1068 20.1164 15.4801C29.5613 12.0192 39.2456 8.89305 48.9453 5.83457C51.3298 5.08248 53.7126 4.3354 56.0678 3.53568C58.2612 2.79237 60.4683 2.05909 62.8132 1.60407C65.0978 1.16159 67.336 1.10393 69.6722 1.12524C75.3657 1.17789 81.0592 1.41229 86.7424 1.65045C93.6789 1.94251 100.614 2.28722 107.538 2.71842C110.408 2.89641 113.278 3.08819 116.141 3.32385C117.29 3.41786 118.443 3.50811 119.584 3.64348C120.659 3.77259 122.062 3.97189 122.499 4.81173C122.613 5.02983 122.647 5.27802 122.556 5.50114C122.546 5.52621 122.747 5.37579 122.603 5.4698C122.332 5.64654 121.9 5.76061 121.583 5.88345C120.946 6.13039 120.304 6.37105 119.662 6.61047C117.756 7.32119 115.842 8.01938 113.927 8.71631C108.871 10.5552 103.8 12.3752 98.7285 14.1915C94.8685 15.5728 91.0086 16.9529 87.1401 18.323C85.081 19.0525 82.9513 19.7545 80.6391 19.8911C78.0945 20.0415 75.4983 19.7645 72.9589 19.6579C70.1009 19.5389 67.2464 19.3859 64.3919 19.2217C53.7453 18.6088 43.1313 17.6724 32.4829 17.0996C30.1157 16.9717 27.7433 16.8715 25.3691 16.8276C23.6027 16.795 21.7743 16.7173 20.1301 17.2688C17.1035 18.2854 16.4992 20.9478 16.2082 23.1075C16.0051 24.6142 16.1858 26.0983 17.5218 27.3242C18.5583 28.2769 20.0234 28.8898 21.5798 29.2897C24.9766 30.1633 28.6867 30.0618 32.2299 30.2849C42.9006 30.9593 53.5766 31.5923 64.2697 32.0586C69.3813 32.2817 74.4963 32.466 79.613 32.5938C80.5978 32.6189 80.5961 31.5046 79.613 31.4808L79.6079 31.482Z" fill="white"/>
<path d="M14.9291 30.2285C9.63157 30.3576 4.69561 32.5211 1.9909 35.8366C-0.777505 39.231 -0.718969 43.5781 2.54527 46.792C4.5355 48.7524 7.43475 50.1639 10.792 50.4484C11.7681 50.5311 11.7595 49.4168 10.792 49.3353C5.5616 48.8928 1.69995 45.1098 1.50024 41.4296C1.31946 38.1204 3.83306 34.9604 7.54493 33.1191C9.73659 32.0323 12.2777 31.4081 14.9308 31.3429C15.9121 31.3191 15.9173 30.2047 14.9308 30.2298L14.9291 30.2285Z" fill="white"/>
<path d="M126.357 18.2478C128.15 18.1826 131.333 19.6103 129.231 20.9428C129.124 21.0104 129.303 20.9077 129.102 21.0117C128.964 21.0832 128.821 21.1496 128.68 21.216C128.294 21.3965 127.898 21.5682 127.502 21.7375C124.749 22.917 121.919 24.005 119.097 25.0918C111.219 28.1277 103.268 31.0696 95.2438 33.8937C90.2941 35.636 85 37.5539 79.3496 37.3583C78.3648 37.3245 78.3683 38.4376 79.3496 38.4714C84.7642 38.6594 89.9257 36.9823 94.6946 35.3177C99.0315 33.8047 103.337 32.2429 107.626 30.661C111.958 29.0641 116.274 27.4433 120.562 25.785C123.408 24.6844 126.282 23.5976 129.029 22.3692C130.205 21.844 131.455 21.1935 131.478 20.0741C131.514 18.2503 128.584 17.052 126.361 17.1322C125.381 17.1673 125.376 18.2816 126.361 18.2453L126.357 18.2478Z" fill="white"/>
<path d="M78.1823 37.3596C70.2369 37.2505 62.276 36.6426 54.3599 36.175C44.9184 35.6172 35.4803 35.0055 26.0285 34.5505C22.0136 34.3575 17.6854 33.9714 13.7239 34.5417C10.9985 34.9353 8.79997 36.0534 7.72739 37.9474C6.78048 39.6208 6.75121 41.6139 7.61548 43.3098C9.85706 47.7008 16.8762 48.2222 22.4044 48.6095C30.5306 49.1799 38.6723 49.6462 46.8208 50.0109C54.9694 50.3744 63.1282 50.6352 71.2888 50.7931C75.3657 50.8721 79.4736 51.0137 83.5504 50.9322C85.1619 50.8996 86.7906 50.7781 88.3039 50.3581C89.6485 49.9846 90.9294 49.497 92.1845 48.9881C93.3707 48.5068 94.5311 47.9953 95.7018 47.4952C96.5506 47.1329 95.781 46.1703 94.9305 46.5338C92.5856 47.5353 90.2425 48.671 87.672 49.3453C86.0589 49.7678 84.3338 49.8242 82.6345 49.8267C80.6873 49.8304 78.7401 49.7953 76.7947 49.769C69.0111 49.6637 61.231 49.4632 53.456 49.1698C45.6191 48.874 37.7873 48.4829 29.9693 47.9966C26.3522 47.771 22.7092 47.5892 19.1092 47.242C16.2461 46.9662 13.0834 46.4811 10.9159 44.9895C7.16441 42.4086 7.76698 36.966 13.1093 35.7977C15.6487 35.2424 18.4309 35.3866 21.0495 35.4618C22.463 35.5019 23.8764 35.5633 25.2882 35.6298C34.196 36.0447 43.09 36.6188 51.984 37.1477C60.1257 37.6316 68.2794 38.1881 76.4435 38.4338C77.0236 38.4513 77.6038 38.4651 78.184 38.4739C79.1688 38.4877 79.1688 37.3734 78.184 37.3608L78.1823 37.3596Z" fill="white"/>
<path d="M11.7197 50.6477C21.3799 51.1127 31.0194 51.8272 40.664 52.4176C52.1698 53.1221 63.698 53.839 75.2416 54.1136C78.8278 54.1988 82.4983 54.3191 86.069 54.0083C88.2951 53.8152 90.1907 53.0506 92.1671 52.3173C100.887 49.0833 109.404 45.5197 117.783 41.842C121.645 40.1473 125.507 38.4275 129.186 36.526C130.913 35.6335 135.003 33.9727 133.394 32.0135C132.569 31.0094 130.744 30.7111 129.272 30.5908C128.539 30.5306 128.198 31.4168 128.886 31.6286C129.045 31.6775 128.651 31.2651 128.757 31.3065C128.726 31.2952 128.859 31.2514 128.721 31.3529C128.554 31.477 128.714 31.3767 128.583 31.4895C128.144 31.8681 127.588 32.1864 127.053 32.4885C125.15 33.5653 123.091 34.5041 121.053 35.4342C115.564 37.9374 109.933 40.2739 104.306 42.6091C101.598 43.7322 98.885 44.8491 96.1871 45.9835C95.3349 46.342 96.1045 47.3047 96.9584 46.9449C102.586 44.5771 108.263 42.2719 113.872 39.8816C116.771 38.6456 119.658 37.3947 122.497 36.0873C124.586 35.1246 126.702 34.1507 128.607 32.9987C129.282 32.5913 131.369 31.1937 129.656 30.6672C129.527 31.0132 129.399 31.3592 129.27 31.7051C130.105 31.7728 131.123 31.9182 131.777 32.3356C131.999 32.4785 132.178 32.6527 132.218 32.8721C132.244 33.0137 132.075 33.3973 132.17 33.2231C132.056 33.4337 131.932 33.4838 131.608 33.7169C130.706 34.3688 129.654 34.9178 128.625 35.4543C125.099 37.2919 121.39 38.9502 117.682 40.5848C109.401 44.2361 100.973 47.7484 92.3737 50.9886C91.1238 51.4599 89.8704 51.9275 88.593 52.3549C87.9284 52.5768 87.4154 52.7335 86.5545 52.8425C83.5589 53.2198 80.0278 53.0895 76.8806 53.0331C65.8586 52.8338 54.8452 52.1581 43.8594 51.4975C33.8773 50.8971 23.9038 50.1964 13.9166 49.6474C13.1849 49.6073 12.4514 49.5684 11.7197 49.5333C10.7367 49.4857 10.7418 50.6001 11.7197 50.6464V50.6477Z" fill="white"/>
<path d="M128.513 22.3479C128.511 25.5593 127.883 28.762 127.657 31.9658C127.608 32.6816 129.136 32.6803 129.186 31.9658C129.412 28.7607 130.04 25.5593 130.042 22.3479C130.042 21.6309 128.513 21.6297 128.513 22.3479Z" fill="white"/>
<path d="M124.417 38.8399C128.525 39.0054 130.899 41.5261 131.87 44.2023C132.969 47.2295 132.766 51.2243 129.818 53.6686C127.976 55.1966 125.443 56.1856 123.085 57.2235C120.199 58.4932 117.312 59.7643 114.427 61.034C108.6 63.5987 102.774 66.1633 96.9484 68.7266C91.6853 71.0431 85.3686 73.6691 78.9589 72.6977C77.9982 72.5523 77.5885 73.6252 78.5526 73.7719C84.3132 74.6443 90.4302 72.8694 95.3111 70.7485C101.635 68.0009 107.917 65.2006 114.22 62.4267C117.433 61.0127 120.645 59.5988 123.858 58.1849C126.361 57.0831 129.074 56.0189 130.999 54.3756C134.108 51.7207 134.525 47.6582 133.499 44.3577C132.457 41.0059 129.479 37.9299 124.419 37.7256C123.436 37.6855 123.439 38.7998 124.419 38.8387L124.417 38.8399Z" fill="white"/>
<path d="M5.93995 49.4268C4.74685 51.1742 6.17754 53.809 8.84954 54.3843C9.53131 54.531 10.294 54.5498 10.9981 54.6024C14.0765 54.8331 17.172 54.9672 20.2589 55.1088C30.334 55.5739 40.4194 55.9436 50.4996 56.3285C59.2766 56.6644 68.0604 56.9615 76.8305 57.404C77.9323 57.4591 79.0342 57.5155 80.1326 57.5957C80.2996 57.6083 80.4666 57.6208 80.6336 57.6346C80.9228 57.6584 80.5389 57.6007 80.8522 57.6559C81.6149 57.7925 82.3173 58.0821 82.975 58.3917C86.4028 59.9999 88.2037 63.17 86.4493 65.9715C84.5279 69.0388 79.6557 69.2857 75.6064 69.1227C65.3987 68.7091 55.1963 67.9921 45.0024 67.423C39.7755 67.131 34.5503 66.8389 29.3234 66.5468C26.7426 66.4027 24.1619 66.2585 21.5811 66.1144C19.1622 65.979 16.5539 66.0154 14.2107 65.5152C13.3757 65.3372 12.1585 65.0239 11.7694 64.3871C11.4441 63.8569 11.8073 63.2 12.0621 62.6999C12.2274 62.3753 11.7953 61.9691 11.3253 61.9954C9.51237 62.0957 7.37236 62.3565 6.01743 63.3216C4.53337 64.3796 4.78129 66.2422 5.74196 67.4581C6.99532 69.045 9.40563 69.4963 11.704 69.8309C14.6498 70.2596 17.6489 70.4627 20.6377 70.6633C32.7856 71.4793 44.9645 72.0057 57.1331 72.6112C64.0679 72.9559 70.9992 73.3282 77.9203 73.7919C78.8999 73.8571 78.8947 72.744 77.9203 72.6788C66.8294 71.9343 55.7145 71.4304 44.603 70.8876C39.073 70.6169 33.5448 70.3374 28.0201 70.014C22.4936 69.6893 16.8208 69.5151 11.3924 68.6477C10.1304 68.4459 8.76345 68.2265 7.78728 67.5672C6.89202 66.963 6.4203 66.0392 6.51499 65.1567C6.69232 63.5197 9.50721 63.2088 11.3235 63.1085C11.0773 62.8741 10.8312 62.6385 10.5867 62.4041C10.0116 63.5372 9.84465 64.7443 11.1893 65.623C12.7714 66.6584 15.1404 66.8527 17.1668 66.9793C22.4109 67.3077 27.6637 67.5672 32.9113 67.8605C43.6216 68.4584 54.332 69.0575 65.0441 69.6555C67.6902 69.8034 70.3381 69.9513 72.9843 70.0992C75.1536 70.2208 77.3418 70.3674 79.5162 70.2195C83.4588 69.9513 87.0037 68.5361 88.2432 65.6544C89.4553 62.839 87.9213 59.8307 84.8258 58.0056C83.5621 57.2598 82.1624 56.6506 80.5423 56.514C77.9237 56.2921 75.2741 56.2119 72.6434 56.0953C68.1069 55.896 63.5669 55.718 59.0286 55.5425C48.3011 55.1264 37.5718 54.7353 26.8459 54.284C22.7536 54.1123 18.6612 53.9368 14.574 53.7125C13.2862 53.641 11.9984 53.5683 10.7158 53.4668C10.5092 53.4505 10.3009 53.4329 10.0943 53.4141C9.87564 53.3941 10.034 53.4154 9.71036 53.374C9.56574 53.3552 8.96144 53.2211 9.29372 53.3301C7.6857 52.8062 6.42201 51.213 7.25873 49.9871C7.69603 49.3478 6.37725 48.7825 5.93823 49.4256L5.93995 49.4268Z" fill="white"/>
<path d="M10.9556 54.7829C10.3754 57.9831 11.3912 61.2346 10.811 64.4335C10.7559 64.7343 11.2018 64.9875 11.5754 64.99C12.0334 64.9938 12.2865 64.7305 12.3398 64.4335C12.92 61.2333 11.9042 57.9818 12.4844 54.7829C12.5395 54.4821 12.0936 54.2289 11.72 54.2264C11.2621 54.2226 11.009 54.4859 10.9556 54.7829Z" fill="white"/>
<path d="M17.8677 23.5199C25.6237 23.7555 33.3745 24.0589 41.1237 24.3785C49.5287 24.7257 57.9304 25.1005 66.332 25.4954C70.5139 25.6922 74.6958 25.8927 78.8777 26.1021C79.3683 26.1271 79.3666 25.5693 78.8777 25.5455C71.0717 25.1569 63.2623 24.7897 55.4529 24.4399C47.0685 24.0652 38.6807 23.7092 30.2911 23.392C26.1505 23.2353 22.01 23.0887 17.8677 22.9633C17.3753 22.9483 17.377 23.5048 17.8677 23.5199Z" fill="white"/>
<path d="M17.6301 20.593C25.5032 20.8324 33.3728 21.1583 41.239 21.5005C49.8611 21.8753 58.4796 22.2802 67.0982 22.6976C71.3145 22.9019 75.5308 23.11 79.7471 23.3206C80.2378 23.3457 80.2361 22.7879 79.7471 22.764C71.8224 22.3692 63.8959 21.9819 55.9695 21.6108C47.3681 21.2085 38.765 20.8224 30.1585 20.4827C25.9835 20.3185 21.8085 20.1643 17.6318 20.0365C17.1394 20.0214 17.1412 20.578 17.6318 20.593H17.6301Z" fill="white"/>
<path d="M17.6301 26.7915C25.4774 27.0296 33.3212 27.3167 41.165 27.62C49.7543 27.9522 58.3419 28.3082 66.9277 28.693C71.1613 28.8823 75.3931 29.0791 79.6232 29.2909C80.1138 29.316 80.1121 28.7582 79.6232 28.7344C71.726 28.3408 63.8236 27.9923 55.9195 27.6601C47.3492 27.3004 38.7771 26.9619 30.2033 26.6561C26.0128 26.5057 21.8206 26.364 17.6284 26.2362C17.136 26.2211 17.1377 26.7777 17.6284 26.7927L17.6301 26.7915Z" fill="white"/>
<path d="M9.36304 38.4375C20.1595 38.766 30.9525 39.1558 41.7369 39.6559C48.107 39.9517 54.4702 40.3453 60.8334 40.7088C67.1742 41.0698 73.5185 41.4559 79.8731 41.6577C81.4863 41.7091 83.1717 41.8157 84.7815 41.6715C85.1551 41.6377 85.477 41.5537 85.8334 41.4559C87.0179 41.135 88.1594 40.7339 89.275 40.3065C91.5751 39.424 93.8287 38.4839 96.1375 37.6128C105.958 33.91 115.713 30.1157 125.576 26.4756C126.774 26.0331 127.974 25.5944 129.176 25.1582C129.617 24.9977 129.229 24.5177 128.79 24.6768C118.963 28.2417 109.274 32.0059 99.536 35.6987C97.1395 36.6075 94.7137 37.4811 92.3498 38.4325C90.0928 39.34 87.865 40.3316 85.4288 40.9708C84.1978 41.293 82.6363 41.1689 81.2538 41.1375C75.2281 40.9984 69.2075 40.6236 63.1989 40.2852C56.7204 39.9204 50.247 39.5193 43.765 39.1959C33.6055 38.6882 23.4289 38.326 13.2557 38.0013C11.9576 37.96 10.6594 37.9199 9.36132 37.8797C8.86893 37.8647 8.87065 38.4212 9.36132 38.4363L9.36304 38.4375Z" fill="white"/>
<path d="M8.52952 40.8643C19.9509 41.2153 31.3241 42.1165 42.7404 42.5439C49.8008 42.8084 56.8561 43.1732 63.9114 43.5079C70.2488 43.8087 76.5948 44.1647 82.9442 44.3051C83.6363 44.3201 84.3371 44.3427 85.0292 44.3164C85.6197 44.2938 86.0948 44.1058 86.6217 43.919C89.7482 42.8109 92.7989 41.585 95.8669 40.3955C105.58 36.63 115.347 32.9235 125.159 29.2959C126.497 28.8021 127.836 28.3107 129.179 27.8231C129.62 27.6626 129.232 27.1826 128.793 27.3417C118.357 31.1285 108.02 35.0795 97.7142 39.0505C94.5103 40.2852 91.3218 41.5424 88.1006 42.752C87.2208 43.0817 86.2567 43.5292 85.3322 43.736C85.1962 43.7661 85.3201 43.741 85.234 43.7485C85.1324 43.7573 85.0292 43.7586 84.9259 43.7623C84.6228 43.7711 84.3181 43.7686 84.0134 43.7661C78.1822 43.7147 72.3389 43.3474 66.5215 43.0742C59.2458 42.732 51.9718 42.3609 44.6927 42.0626C39.9082 41.8671 35.129 41.6627 30.3514 41.397C24.4702 41.0686 18.5925 40.7051 12.7045 40.4582C11.3134 40.4005 9.92234 40.3491 8.53125 40.3065C8.03885 40.2914 8.04058 40.848 8.53125 40.863L8.52952 40.8643Z" fill="white"/>
<path d="M9.36276 44.018C17.5389 44.2687 25.6874 44.8303 33.8463 45.2715C42.0465 45.7152 50.2656 45.9647 58.4744 46.2931C62.6288 46.4586 66.7831 46.6303 70.9374 46.8095C74.9747 46.9838 79.0619 47.0552 83.0768 47.4175C83.9135 47.4927 84.7674 47.5215 85.58 47.331C86.4684 47.1229 87.3 46.7418 88.1177 46.4172C89.9289 45.699 91.7659 45.0208 93.5995 44.3339C97.2339 42.9751 100.856 41.5988 104.475 40.2187C111.797 37.426 119.102 34.6069 126.455 31.8568C127.363 31.5171 128.272 31.1786 129.181 30.8427C129.62 30.6798 129.232 30.1997 128.795 30.3614C121.502 33.0639 114.268 35.8504 107.023 38.6193C103.401 40.0044 99.7767 41.3857 96.1423 42.7558C94.3312 43.4377 92.5183 44.1171 90.7019 44.7914C89.8067 45.1236 88.92 45.4658 88.0385 45.8168C87.1588 46.1665 86.2446 46.6115 85.2788 46.8183C84.3938 47.0076 83.4641 46.8973 82.5689 46.812C81.6065 46.7205 80.6372 46.6879 79.6679 46.6428C77.6295 46.5476 75.5893 46.4573 73.5509 46.3671C69.4379 46.1866 65.3232 46.0136 61.2084 45.8469C53.022 45.5147 44.8252 45.2715 36.6457 44.8616C28.554 44.4567 20.4794 43.8839 12.3791 43.5668C11.3754 43.5279 10.3699 43.4928 9.36621 43.4615C8.87382 43.4464 8.87554 44.003 9.36621 44.018H9.36276Z" fill="white"/>
<path d="M12.1282 57.879C16.2291 58.0031 20.3284 58.1472 24.4259 58.2964C29.6149 58.4844 34.8022 58.6825 39.9896 58.8855C45.5746 59.1049 51.1596 59.3305 56.7429 59.5624C62.0335 59.7818 67.3224 60.0074 72.6113 60.2406C76.8999 60.4298 81.1886 60.6241 85.4772 60.8335C85.9128 60.8548 86.3466 60.8761 86.7822 60.8974C87.2729 60.9224 87.2711 60.3647 86.7822 60.3408C82.6468 60.1353 78.5097 59.946 74.3726 59.7617C69.1663 59.5298 63.96 59.3067 58.7521 59.0886C53.167 58.8555 47.582 58.6273 41.9953 58.4067C36.7236 58.1986 31.4502 57.9956 26.1785 57.8025C21.926 57.6471 17.6719 57.4954 13.4177 57.3613C12.989 57.3475 12.5586 57.335 12.1299 57.3212C11.6375 57.3062 11.6392 57.8627 12.1299 57.8778L12.1282 57.879Z" fill="white"/>
<path d="M12.1282 60.7206C16.2326 60.8447 20.337 60.9814 24.4414 61.1193C29.6442 61.296 34.847 61.4777 40.0498 61.6658C45.6538 61.8676 51.2577 62.0757 56.8617 62.29C62.1695 62.4931 67.4774 62.7024 72.7852 62.9243C77.0996 63.1035 81.4141 63.289 85.7268 63.4984C86.1589 63.5197 86.5928 63.541 87.0249 63.5623C87.5156 63.5874 87.5139 63.0296 87.0249 63.0057C82.8861 62.7989 78.7438 62.6197 74.6015 62.4442C69.3798 62.2236 64.158 62.0155 58.9363 61.8137C53.3323 61.5968 47.7266 61.3875 42.121 61.1844C36.8303 60.9927 31.5397 60.8046 26.2491 60.6241C21.9708 60.4775 17.6908 60.3358 13.4125 60.203C12.9855 60.1892 12.5586 60.1766 12.1299 60.1641C11.6375 60.1491 11.6392 60.7056 12.1299 60.7206H12.1282Z" fill="white"/>
<path d="M12.1282 63.5623C16.2102 63.6864 20.2905 63.8393 24.3708 63.9973C29.4858 64.1966 34.6008 64.4084 39.7141 64.6277C45.2354 64.8634 50.755 65.1078 56.2746 65.356C61.4895 65.5917 66.7044 65.8311 71.9192 66.0768C76.201 66.2786 80.4844 66.4829 84.7644 66.6947C85.1914 66.716 85.6201 66.7374 86.0471 66.7587C86.5377 66.7837 86.536 66.2259 86.0471 66.2021C81.9289 65.9965 77.8107 65.7985 73.6925 65.6042C68.5586 65.361 63.4263 65.1241 58.2907 64.891C52.7694 64.6403 47.248 64.3959 41.7267 64.1577C36.5291 63.9333 31.3314 63.7165 26.1338 63.5109C21.8882 63.3429 17.6409 63.1812 13.3936 63.0459C12.9718 63.0321 12.55 63.0195 12.1265 63.0057C11.6341 62.9907 11.6358 63.5473 12.1265 63.5623H12.1282Z" fill="white"/>
<path d="M79.8163 26.0444C90.0119 22.3504 100.433 19.0023 110.728 15.46C113.61 14.4685 116.482 13.4607 119.337 12.4266C119.777 12.2674 119.39 11.7861 118.951 11.9452C108.755 15.6393 98.3343 18.9873 88.0388 22.5296C85.1568 23.5211 82.2851 24.5289 79.4306 25.563C78.9899 25.7222 79.3772 26.2036 79.8163 26.0444Z" fill="white"/>
<path d="M80.1844 29.074C90.3697 25.3813 100.567 21.7048 110.759 18.0196C113.621 16.9855 116.48 15.9501 119.338 14.9135C119.779 14.7543 119.391 14.273 118.952 14.4322C108.767 18.1249 98.5699 21.8014 88.3777 25.4866C85.5164 26.5207 82.6567 27.5561 79.7988 28.5927C79.358 28.7519 79.7454 29.2332 80.1844 29.074Z" fill="white"/>
<path d="M80.5511 23.2817C90.5849 19.6441 100.737 16.1858 110.825 12.6271C113.669 11.6231 116.508 10.6116 119.338 9.58495C119.779 9.42576 119.391 8.94443 118.952 9.10362C108.919 12.7412 98.7661 16.1996 88.679 19.7582C85.8349 20.7622 82.9959 21.7738 80.1655 22.8004C79.7247 22.9596 80.1121 23.4409 80.5511 23.2817Z" fill="white"/>
</svg>
