<svg width="84" height="84" viewBox="0 0 84 84" fill="none" xmlns="http://www.w3.org/2000/svg">
<path d="M21.5 6.12711C21.5 4.76787 20.96 3.46431 19.9989 2.50318C19.0378 1.54206 17.7342 1.00211 16.375 1.00211H6.125C4.76577 1.00211 3.4622 1.54206 2.50108 2.50318C1.53995 3.46431 1 4.76787 1 6.12711V77.8771C1 79.2363 1.53995 80.5399 2.50108 81.501C3.4622 82.4621 4.76577 83.0021 6.125 83.0021H16.375C17.7342 83.0021 19.0378 82.4621 19.9989 81.501C20.96 80.5399 21.5 79.2363 21.5 77.8771M21.5 6.12711V77.8771M21.5 6.12711C21.5 4.76787 22.04 3.46431 23.0011 2.50318C23.9622 1.54206 25.2658 1.00211 26.625 1.00211H36.875C38.2342 1.00211 39.5378 1.54206 40.4989 2.50318C41.46 3.46431 42 4.76787 42 6.12711V77.8771C42 79.2363 41.46 80.5399 40.4989 81.501C39.5378 82.4621 38.2342 83.0021 36.875 83.0021H26.625C25.2658 83.0021 23.9622 82.4621 23.0011 81.501C22.04 80.5399 21.5 79.2363 21.5 77.8771M1 21.5021H21.5M21.5 62.5021H42" stroke="white" stroke-width="2" stroke-linecap="round" stroke-linejoin="round"/>
<path d="M47.1251 26.6273L67.6251 21.5023M57.3751 62.5023L77.4805 57.4798M46.1155 3.87234L57.3085 1.15609C60.1888 0.464214 63.1151 2.12984 63.8788 4.90759L82.8156 73.6748C83.1497 74.9338 83.0018 76.2721 82.4008 77.4277C81.7997 78.5833 80.789 79.4729 79.5664 79.9222L78.8848 80.1323L67.6918 82.8486C64.8115 83.5405 61.8851 81.8748 61.1215 79.0971L42.1846 10.3298C41.8506 9.07088 41.9985 7.73255 42.5995 6.57697C43.2005 5.42139 44.2113 4.53181 45.4339 4.08246L46.1155 3.87234Z" stroke="white" stroke-width="2" stroke-linecap="round" stroke-linejoin="round"/>
</svg>
