<svg width="13" height="13" viewBox="0 0 13 13" fill="none" xmlns="http://www.w3.org/2000/svg">
<path d="M2 7.5H4C4.39782 7.5 4.77924 7.65815 5.06055 7.93945C5.34185 8.22076 5.5 8.60218 5.5 9V11C5.5 11.3978 5.34185 11.7792 5.06055 12.0605C4.77924 12.3419 4.39782 12.5 4 12.5H2C1.60218 12.5 1.22076 12.3419 0.939453 12.0605C0.658149 11.7792 0.5 11.3978 0.5 11V9C0.5 8.60218 0.658148 8.22076 0.939453 7.93945C1.22076 7.65815 1.60218 7.5 2 7.5ZM9 7.5H11C11.3978 7.5 11.7792 7.65815 12.0605 7.93945C12.3419 8.22076 12.5 8.60218 12.5 9V11C12.5 11.3978 12.3419 11.7792 12.0605 12.0605C11.7792 12.3419 11.3978 12.5 11 12.5H9C8.60218 12.5 8.22076 12.3419 7.93945 12.0605C7.65815 11.7792 7.5 11.3978 7.5 11V9C7.5 8.60218 7.65815 8.22076 7.93945 7.93945C8.22076 7.65815 8.60218 7.5 9 7.5ZM2 8C1.73478 8 1.48051 8.10543 1.29297 8.29297C1.10543 8.48051 1 8.73478 1 9V11C1 11.2652 1.10543 11.5195 1.29297 11.707C1.48051 11.8946 1.73478 12 2 12H4C4.26522 12 4.51949 11.8946 4.70703 11.707C4.89457 11.5195 5 11.2652 5 11V9C5 8.73478 4.89457 8.48051 4.70703 8.29297C4.51949 8.10543 4.26522 8 4 8H2ZM9 8C8.73478 8 8.48051 8.10543 8.29297 8.29297C8.10543 8.48051 8 8.73478 8 9V11C8 11.2652 8.10543 11.5195 8.29297 11.707C8.48051 11.8946 8.73478 12 9 12H11C11.2652 12 11.5195 11.8946 11.707 11.707C11.8946 11.5195 12 11.2652 12 11V9C12 8.73478 11.8946 8.48051 11.707 8.29297C11.5195 8.10543 11.2652 8 11 8H9ZM2 0.5H4C4.39782 0.5 4.77924 0.658149 5.06055 0.939453C5.34185 1.22076 5.5 1.60218 5.5 2V4C5.5 4.39783 5.34185 4.77924 5.06055 5.06055C4.77924 5.34185 4.39783 5.5 4 5.5H2C1.60218 5.5 1.22076 5.34185 0.939453 5.06055C0.658149 4.77924 0.5 4.39782 0.5 4V2C0.5 1.60218 0.658149 1.22076 0.939453 0.939453C1.22076 0.658149 1.60218 0.5 2 0.5ZM9 0.5H11C11.3978 0.5 11.7792 0.658149 12.0605 0.939453C12.3419 1.22076 12.5 1.60218 12.5 2V4C12.5 4.39782 12.3419 4.77924 12.0605 5.06055C11.7792 5.34185 11.3978 5.5 11 5.5H9C8.60218 5.5 8.22076 5.34185 7.93945 5.06055C7.65815 4.77924 7.5 4.39782 7.5 4V2C7.5 1.60218 7.65815 1.22076 7.93945 0.939453C8.22076 0.658148 8.60218 0.5 9 0.5ZM2 1C1.73478 1 1.4805 1.10543 1.29297 1.29297C1.10543 1.4805 1 1.73478 1 2V4C1 4.26522 1.10543 4.5195 1.29297 4.70703C1.4805 4.89457 1.73478 5 2 5H4C4.26522 5 4.5195 4.89457 4.70703 4.70703C4.89457 4.5195 5 4.26522 5 4V2C5 1.73478 4.89457 1.4805 4.70703 1.29297C4.5195 1.10543 4.26522 1 4 1H2ZM9 1C8.73478 1 8.48051 1.10543 8.29297 1.29297C8.10543 1.48051 8 1.73478 8 2V4C8 4.26522 8.10543 4.51949 8.29297 4.70703C8.48051 4.89457 8.73478 5 9 5H11C11.2652 5 11.5195 4.89457 11.707 4.70703C11.8946 4.51949 12 4.26522 12 4V2C12 1.73478 11.8946 1.48051 11.707 1.29297C11.5195 1.10543 11.2652 1 11 1H9Z" fill="black" stroke="white"/>
</svg>
