<svg width="17" height="17" viewBox="0 0 17 17" fill="none" xmlns="http://www.w3.org/2000/svg">
<path d="M8.5 14.875C7.49162 13.6133 5.84375 12.75 1.59375 12.75C1.26571 12.75 1.0625 12.4827 1.0625 12.1547V2.65625C1.06224 2.58642 1.0758 2.51722 1.10241 2.45264C1.12901 2.38807 1.16813 2.3294 1.21752 2.28002C1.2669 2.23063 1.32557 2.19151 1.39014 2.16491C1.45472 2.1383 1.52392 2.12474 1.59375 2.125C5.96229 2.14459 7.96875 3.21539 8.5 5.3125C9.03125 3.21539 11.0377 2.14459 15.4063 2.125C15.4761 2.12474 15.5453 2.1383 15.6099 2.16491C15.6744 2.19151 15.7331 2.23063 15.7825 2.28002C15.8319 2.3294 15.871 2.38807 15.8976 2.45264C15.9242 2.51722 15.9378 2.58642 15.9375 2.65625V12.2188C15.9375 12.3597 15.8815 12.4948 15.7819 12.5944C15.6823 12.694 15.5472 12.75 15.4063 12.75C11.1563 12.75 9.51436 13.607 8.5 14.875ZM8.5 5.3125V14.875" stroke="#808392" stroke-linecap="round" stroke-linejoin="round"/>
</svg>
