<svg width="17" height="12" viewBox="0 0 17 12" fill="none" xmlns="http://www.w3.org/2000/svg">
<g clip-path="url(#clip0_2949_1410)">
<path d="M8.23885 1C5.60025 1 2.89361 2.52716 0.762832 5.58148C0.702011 5.66963 0.668682 5.77382 0.667055 5.88089C0.665428 5.98797 0.695577 6.09313 0.753691 6.18307C2.39088 8.74583 5.0613 10.75 8.23885 10.75C11.3819 10.75 14.1071 8.73974 15.7474 6.17122C15.8041 6.08304 15.8343 5.98038 15.8343 5.87551C15.8343 5.77064 15.8041 5.66798 15.7474 5.57979C14.1034 3.04073 11.3582 1 8.23885 1Z" stroke="#808392" stroke-width="0.6" stroke-linecap="round" stroke-linejoin="round"/>
<path d="M8.25033 8.58366C9.7461 8.58366 10.9587 7.3711 10.9587 5.87533C10.9587 4.37955 9.7461 3.16699 8.25033 3.16699C6.75455 3.16699 5.54199 4.37955 5.54199 5.87533C5.54199 7.3711 6.75455 8.58366 8.25033 8.58366Z" stroke="#808392" stroke-width="0.6" stroke-miterlimit="10"/>
</g>
<defs>
<clipPath id="clip0_2949_1410">
<rect width="17" height="12" fill="white"/>
</clipPath>
</defs>
</svg>
