<svg width="39" height="39" viewBox="0 0 39 39" fill="none" xmlns="http://www.w3.org/2000/svg">
<path d="M31.6875 6.09375H7.3125C5.29321 6.09375 3.65625 7.73071 3.65625 9.75V29.25C3.65625 31.2693 5.29321 32.9062 7.3125 32.9062H31.6875C33.7068 32.9062 35.3438 31.2693 35.3438 29.25V9.75C35.3438 7.73071 33.7068 6.09375 31.6875 6.09375Z" stroke="#53545E" stroke-width="2" stroke-linejoin="round"/>
<path d="M25.5938 15.8438C26.9399 15.8438 28.0312 14.7524 28.0312 13.4062C28.0312 12.0601 26.9399 10.9688 25.5938 10.9688C24.2476 10.9688 23.1562 12.0601 23.1562 13.4062C23.1562 14.7524 24.2476 15.8438 25.5938 15.8438Z" stroke="#53545E" stroke-width="2" stroke-miterlimit="10"/>
<path d="M23.1562 25.5777L16.2505 18.6849C15.8111 18.2456 15.2204 17.9907 14.5993 17.9723C13.9782 17.9539 13.3735 18.1734 12.9088 18.5859L3.65625 26.8125M17.0625 32.9062L26.4575 23.5112C26.8872 23.0807 27.4623 22.8263 28.0699 22.7981C28.6775 22.7699 29.2736 22.9699 29.7413 23.3588L35.3438 28.0312" stroke="#53545E" stroke-width="2" stroke-linecap="round" stroke-linejoin="round"/>
</svg>
