<svg width="16" height="16" viewBox="0 0 16 16" fill="none" xmlns="http://www.w3.org/2000/svg">
<path d="M14.952 2.78194L10.3 1.48069L5.63438 2.79494L1.29559 1.56412C1.20262 1.53775 1.1048 1.53329 1.00981 1.5511C0.914825 1.56891 0.825263 1.6085 0.748163 1.66677C0.671063 1.72504 0.608526 1.8004 0.565467 1.88692C0.522407 1.97344 0.499998 2.06876 0.5 2.1654V12.8092C0.500457 12.9723 0.553875 13.1308 0.652215 13.2609C0.750554 13.3911 0.888496 13.4857 1.04528 13.5307L5.63331 14.8322L10.301 13.5174L14.7067 14.7498C14.7996 14.7758 14.8972 14.7799 14.992 14.7619C15.0867 14.7438 15.176 14.7041 15.2528 14.6458C15.3297 14.5875 15.392 14.5121 15.4348 14.4258C15.4777 14.3394 15.5 14.2442 15.5 14.1477V3.50422C15.4996 3.34062 15.4459 3.18162 15.347 3.05129C15.2481 2.92096 15.1095 2.8264 14.952 2.78194ZM5.09375 13.6396L1.5 12.6201V2.66156L5.09375 3.68106V13.6396ZM9.80047 12.6193L6.09375 13.6635V3.70444L9.80047 2.66031V12.6193ZM14.5 13.6534L10.8005 12.6187V2.65903L14.5 3.69375V13.6534Z" fill="#6099FE"/>
</svg>
