<svg width="16" height="16" viewBox="0 0 16 16" fill="none" xmlns="http://www.w3.org/2000/svg">
<path d="M2 6.66667C2 4.15267 2 2.89533 2.78133 2.11467C3.56267 1.334 4.81933 1.33333 7.33333 1.33333H8.66667C11.1807 1.33333 12.438 1.33333 13.2187 2.11467C13.9993 2.896 14 4.15267 14 6.66667V9.33333C14 11.8473 14 13.1047 13.2187 13.8853C12.4373 14.666 11.1807 14.6667 8.66667 14.6667H7.33333C4.81933 14.6667 3.562 14.6667 2.78133 13.8853C2.00067 13.104 2 11.8473 2 9.33333V6.66667Z" stroke="#6099FE"/>
<path d="M5.33331 6.66666H10.6666M5.33331 9.33333H8.66665" stroke="#6099FE" stroke-linecap="round"/>
</svg>
