<svg width="16" height="16" viewBox="0 0 16 16" fill="none" xmlns="http://www.w3.org/2000/svg">
<path d="M8.00049 1.15673C8.17283 1.15682 8.34075 1.21022 8.48193 1.30907C8.62327 1.40806 8.73058 1.54828 8.78955 1.71044L10.2515 5.72899L10.2573 5.74266L10.271 5.74852L14.2896 7.21044C14.4517 7.26941 14.5919 7.37672 14.6909 7.51805C14.7899 7.65937 14.8433 7.82796 14.8433 8.00048C14.8432 8.17282 14.7898 8.34074 14.6909 8.48192C14.5919 8.62325 14.4517 8.73057 14.2896 8.78954L10.271 10.2515L10.2573 10.2573L10.2515 10.271L8.78955 14.2895C8.73058 14.4517 8.62327 14.5919 8.48193 14.6909C8.34075 14.7898 8.17283 14.8432 8.00049 14.8433C7.82797 14.8433 7.65938 14.7899 7.51807 14.6909C7.37673 14.5919 7.26942 14.4517 7.21045 14.2895L5.74854 10.271L5.74268 10.2573L5.729 10.2515L1.71045 8.78954C1.54829 8.73057 1.40807 8.62325 1.30908 8.48192C1.21023 8.34074 1.15684 8.17282 1.15674 8.00048C1.15674 7.82796 1.21013 7.65937 1.30908 7.51805C1.40807 7.37672 1.54829 7.26941 1.71045 7.21044L5.729 5.74852L5.74268 5.74266L5.74854 5.72899L7.21045 1.71044C7.26942 1.54828 7.37673 1.40806 7.51807 1.30907C7.65938 1.21012 7.82797 1.15673 8.00049 1.15673ZM8.00049 1.84813C7.96985 1.84813 7.93913 1.85761 7.91357 1.8745C7.88816 1.89138 7.86792 1.91576 7.85596 1.94384V1.94481L6.33447 6.12841C6.31731 6.17564 6.28993 6.21885 6.25439 6.25438C6.21886 6.28992 6.17565 6.3173 6.12842 6.33446L1.94482 7.85595H1.94385C1.91577 7.86791 1.89139 7.88815 1.87451 7.91356C1.85762 7.93912 1.84814 7.96984 1.84814 8.00048C1.84824 8.03095 1.85771 8.06099 1.87451 8.08641C1.89139 8.11184 1.91577 8.13207 1.94385 8.14403H1.94482L6.12842 9.66845C6.1756 9.68559 6.21888 9.71304 6.25439 9.74852C6.28993 9.78406 6.31731 9.82727 6.33447 9.8745L7.85596 14.0581V14.06C7.86791 14.088 7.88825 14.1116 7.91357 14.1284C7.93913 14.1453 7.96985 14.1548 8.00049 14.1548C8.03096 14.1547 8.061 14.1452 8.08643 14.1284C8.11175 14.1116 8.13209 14.088 8.14404 14.06V14.0581L9.66553 9.8745C9.68269 9.82727 9.71007 9.78406 9.74561 9.74852C9.78112 9.71304 9.82439 9.68559 9.87158 9.66845L14.0552 8.14794L14.0757 8.14013V8.13134C14.095 8.1195 14.1128 8.10547 14.1255 8.08641C14.1423 8.06099 14.1518 8.03095 14.1519 8.00048C14.1519 7.96984 14.1424 7.93912 14.1255 7.91356C14.1086 7.88815 14.0842 7.8679 14.0562 7.85595H14.0552L9.87158 6.33446C9.82435 6.3173 9.78114 6.28992 9.74561 6.25438C9.71007 6.21885 9.68269 6.17564 9.66553 6.12841L8.14404 1.94481V1.94384L8.11963 1.90477C8.11002 1.89326 8.09905 1.88289 8.08643 1.8745C8.061 1.85769 8.03096 1.84823 8.00049 1.84813Z" fill="#6099FE" stroke="#6099FE" stroke-width="0.0625"/>
<circle cx="2.5" cy="13.5" r="1.2" stroke="#6099FE" stroke-width="0.6"/>
<g clip-path="url(#clip0_2780_10174)">
<path d="M14.8125 2.5C14.8128 2.53845 14.8011 2.57604 14.7791 2.60755C14.757 2.63905 14.7257 2.6629 14.6895 2.67578L13.946 2.94613L13.6758 3.68945C13.6625 3.72534 13.6385 3.75628 13.6071 3.77814C13.5756 3.79999 13.5383 3.81171 13.5 3.81171C13.4617 3.81171 13.4244 3.79999 13.3929 3.77814C13.3615 3.75628 13.3375 3.72534 13.3242 3.68945L13.054 2.94601L12.3105 2.67578C12.2747 2.66246 12.2437 2.63848 12.2219 2.60706C12.2 2.57563 12.1883 2.53827 12.1883 2.5C12.1883 2.46172 12.2 2.42437 12.2219 2.39294C12.2437 2.36152 12.2747 2.33754 12.3105 2.32422L13.054 2.05398L13.3242 1.31055C13.3375 1.27466 13.3615 1.24372 13.3929 1.22186C13.4244 1.20001 13.4617 1.18829 13.5 1.18829C13.5383 1.18829 13.5756 1.20001 13.6071 1.22186C13.6385 1.24372 13.6625 1.27466 13.6758 1.31055L13.9461 2.05398L14.6895 2.32422C14.7257 2.3371 14.757 2.36095 14.7791 2.39245C14.8011 2.42396 14.8128 2.46155 14.8125 2.5Z" fill="white"/>
</g>
<defs>
<clipPath id="clip0_2780_10174">
<rect width="3" height="3" fill="white" transform="translate(12 1)"/>
</clipPath>
</defs>
</svg>
