<svg width="16" height="16" viewBox="0 0 16 16" fill="none" xmlns="http://www.w3.org/2000/svg">
<path d="M7.99996 5.83333C7.53996 5.83333 7.16663 6.20667 7.16663 6.66667V6.738C7.16663 6.87061 7.11395 6.99778 7.02018 7.09155C6.92641 7.18532 6.79923 7.238 6.66663 7.238C6.53402 7.238 6.40684 7.18532 6.31307 7.09155C6.2193 6.99778 6.16663 6.87061 6.16663 6.738V6.66667C6.16663 6.18044 6.35978 5.71412 6.7036 5.3703C7.04741 5.02649 7.51373 4.83333 7.99996 4.83333H8.07729C8.43594 4.8335 8.78594 4.94348 9.08022 5.14848C9.3745 5.35348 9.59895 5.64368 9.72339 5.98005C9.84783 6.31642 9.8663 6.68282 9.77629 7.02999C9.68629 7.37717 9.49214 7.68845 9.21996 7.922L8.70663 8.362C8.64222 8.41791 8.59048 8.4869 8.55484 8.56438C8.5192 8.64186 8.50049 8.72605 8.49996 8.81133V9.16667C8.49996 9.29927 8.44728 9.42645 8.35351 9.52022C8.25974 9.61399 8.13257 9.66667 7.99996 9.66667C7.86735 9.66667 7.74017 9.61399 7.64641 9.52022C7.55264 9.42645 7.49996 9.29927 7.49996 9.16667V8.81133C7.49996 8.34667 7.70263 7.90533 8.05529 7.60333L8.56929 7.16333C8.68658 7.0628 8.77025 6.92876 8.80905 6.77925C8.84786 6.62973 8.83993 6.47192 8.78634 6.32704C8.73274 6.18217 8.63606 6.05718 8.50929 5.96892C8.38253 5.88065 8.23176 5.83333 8.07729 5.83333H7.99996ZM7.99996 11.3333C8.17677 11.3333 8.34634 11.2631 8.47136 11.1381C8.59639 11.013 8.66663 10.8435 8.66663 10.6667C8.66663 10.4899 8.59639 10.3203 8.47136 10.1953C8.34634 10.0702 8.17677 10 7.99996 10C7.82315 10 7.65358 10.0702 7.52855 10.1953C7.40353 10.3203 7.33329 10.4899 7.33329 10.6667C7.33329 10.8435 7.40353 11.013 7.52855 11.1381C7.65358 11.2631 7.82315 11.3333 7.99996 11.3333Z" fill="#6099FE"/>
<path d="M2.16663 8C2.16663 6.45291 2.78121 4.96917 3.87517 3.87521C4.96913 2.78125 6.45286 2.16667 7.99996 2.16667C9.54706 2.16667 11.0308 2.78125 12.1248 3.87521C13.2187 4.96917 13.8333 6.45291 13.8333 8C13.8333 9.5471 13.2187 11.0308 12.1248 12.1248C11.0308 13.2188 9.54706 13.8333 7.99996 13.8333C6.45286 13.8333 4.96913 13.2188 3.87517 12.1248C2.78121 11.0308 2.16663 9.5471 2.16663 8ZM7.99996 3.16667C7.36524 3.16667 6.73673 3.29169 6.15032 3.53458C5.56392 3.77748 5.03109 4.1335 4.58228 4.58232C4.13346 5.03114 3.77744 5.56396 3.53454 6.15036C3.29164 6.73677 3.16663 7.36528 3.16663 8C3.16663 8.63472 3.29164 9.26323 3.53454 9.84964C3.77744 10.436 4.13346 10.9689 4.58228 11.4177C5.03109 11.8665 5.56392 12.2225 6.15032 12.4654C6.73673 12.7083 7.36524 12.8333 7.99996 12.8333C9.28184 12.8333 10.5112 12.3241 11.4176 11.4177C12.3241 10.5113 12.8333 9.28188 12.8333 8C12.8333 6.71812 12.3241 5.48874 11.4176 4.58232C10.5112 3.67589 9.28184 3.16667 7.99996 3.16667Z" fill="#6099FE"/>
</svg>
