<svg width="17" height="17" viewBox="0 0 17 17" fill="none" xmlns="http://www.w3.org/2000/svg">
<path d="M5.60962 3.5848C5.64769 2.69953 5.75946 2.135 6.09315 1.70087C6.22382 1.53186 6.37366 1.38229 6.54267 1.25216C7.19872 0.75 8.15041 0.75 10.0538 0.75H10.4595C12.7549 0.75 13.9026 0.75 14.6162 1.46194C15.3289 2.17307 15.3289 3.31913 15.3289 5.60965V11.2792C15.3289 13.5698 15.3289 14.7158 14.6162 15.427C13.9034 16.1381 12.7549 16.1389 10.4595 16.1389H10.0546C8.15041 16.1389 7.19872 16.1389 6.54267 15.6367C6.37413 15.5074 6.22328 15.3566 6.09396 15.188C5.75946 14.7539 5.64769 14.1894 5.60962 13.3041" stroke="white" stroke-width="1.5" stroke-linecap="round" stroke-linejoin="round"/>
<path d="M10.4693 8.44453H0.75M8.44444 11.2793C8.44444 11.2793 11.2792 9.1913 11.2792 8.44453C11.2792 7.69776 8.44444 5.60973 8.44444 5.60973" stroke="white" stroke-width="1.5" stroke-linecap="round" stroke-linejoin="round"/>
</svg>
