<svg width="16" height="16" viewBox="0 0 16 16" fill="none" xmlns="http://www.w3.org/2000/svg">
<path fill-rule="evenodd" clip-rule="evenodd" d="M8 6.5C8.53043 6.5 9.03914 6.28929 9.41421 5.91421C9.78929 5.53914 10 5.03043 10 4.5C10 3.96957 9.78929 3.46086 9.41421 3.08579C9.03914 2.71071 8.53043 2.5 8 2.5C7.46957 2.5 6.96086 2.71071 6.58579 3.08579C6.21071 3.46086 6 3.96957 6 4.5C6 5.03043 6.21071 5.53914 6.58579 5.91421C6.96086 6.28929 7.46957 6.5 8 6.5ZM8 8C8.92826 8 9.8185 7.63125 10.4749 6.97487C11.1313 6.3185 11.5 5.42826 11.5 4.5C11.5 3.57174 11.1313 2.6815 10.4749 2.02513C9.8185 1.36875 8.92826 1 8 1C7.07174 1 6.1815 1.36875 5.52513 2.02513C4.86875 2.6815 4.5 3.57174 4.5 4.5C4.5 5.42826 4.86875 6.3185 5.52513 6.97487C6.1815 7.63125 7.07174 8 8 8ZM9 9.225C9.00278 9.04023 8.9334 8.86165 8.80662 8.7272C8.67983 8.59276 8.50562 8.51305 8.321 8.505C8.21403 8.50177 8.10702 8.5001 8 8.5C4.15 8.5 1 10.5 1 12.5C1 13.163 1.26339 13.7989 1.73223 14.2678C2.20107 14.7366 2.83696 15 3.5 15H12.25C12.4489 15 12.6397 14.921 12.7803 14.7803C12.921 14.6397 13 14.4489 13 14.25C13 14.0511 12.921 13.8603 12.7803 13.7197C12.6397 13.579 12.4489 13.5 12.25 13.5H3.5C3.23478 13.5 2.98043 13.3946 2.79289 13.2071C2.60536 13.0196 2.5 12.7652 2.5 12.5C2.5 12.296 2.72 11.691 3.82 11.041C4.838 10.44 6.32 10 8 10C8.05867 10 8.117 10.0007 8.175 10.002C8.617 10.01 9 9.667 9 9.225ZM13.75 8C13.75 7.80109 13.671 7.61032 13.5303 7.46967C13.3897 7.32902 13.1989 7.25 13 7.25C12.8011 7.25 12.6103 7.32902 12.4697 7.46967C12.329 7.61032 12.25 7.80109 12.25 8V9.25H11C10.8011 9.25 10.6103 9.32902 10.4697 9.46967C10.329 9.61032 10.25 9.80109 10.25 10C10.25 10.1989 10.329 10.3897 10.4697 10.5303C10.6103 10.671 10.8011 10.75 11 10.75H12.25V12C12.25 12.1989 12.329 12.3897 12.4697 12.5303C12.6103 12.671 12.8011 12.75 13 12.75C13.1989 12.75 13.3897 12.671 13.5303 12.5303C13.671 12.3897 13.75 12.1989 13.75 12V10.75H15C15.1989 10.75 15.3897 10.671 15.5303 10.5303C15.671 10.3897 15.75 10.1989 15.75 10C15.75 9.80109 15.671 9.61032 15.5303 9.46967C15.3897 9.32902 15.1989 9.25 15 9.25H13.75V8Z" fill="white"/>
</svg>
