<svg width="57" height="45" viewBox="0 0 57 45" fill="none" xmlns="http://www.w3.org/2000/svg">
<path d="M56.1085 42.3001H30.0711C29.5189 42.3001 29.0711 41.8524 29.0711 41.3001V15.8356L21.7951 11.8338C21.5132 11.6788 21.1739 11.6689 20.8834 11.8071L13.4189 15.3594C13.0706 15.5252 12.8486 15.8766 12.8486 16.2624V42.29C12.8486 43.0648 13.6917 43.5453 14.3583 43.1503L20.8331 39.3144C21.1492 39.1272 21.5424 39.1283 21.8573 39.3173L28.8336 43.503C28.989 43.5963 29.1669 43.6455 29.3481 43.6455H54.9689C55.4149 43.6455 55.807 43.3502 55.9301 42.9215L56.1085 42.3001Z" fill="#C4DCF0"/>
<path d="M29.0711 41.3001C29.0711 41.8524 29.5189 42.3001 30.0711 42.3001H56.1085V16.8356C56.1085 16.2834 55.6608 15.8356 55.1085 15.8356H29.0711V41.3001Z" fill="#E4EFF8"/>
<path d="M20.8476 37.3682L15.5088 40.459C14.8422 40.845 14.0078 40.3639 14.0078 39.5936V15.696C14.0078 15.3095 14.2305 14.9577 14.5797 14.7922L19.9184 12.2634C20.5819 11.9491 21.3465 12.433 21.3465 13.1671V36.5028C21.3465 36.8596 21.1564 37.1894 20.8476 37.3682Z" fill="#E4EFF8"/>
<path d="M0.027173 16.9557C-0.259219 16.0376 1.78924 14.6401 2.83131 13.9494C5.29464 12.3175 10.1927 9.29694 19.393 4.72266C23.05 4.92331 27.0693 5.31753 31.3786 6.00651C35.1508 6.61026 38.6347 7.35873 41.8056 8.16935C42.0598 8.26258 42.3659 8.42239 42.4346 8.69141C42.795 10.1058 36.2588 13.0988 31.7997 14.7023C25.5267 16.9574 20.8026 17.3827 11.713 18.2013C11.713 18.2013 9.88761 18.3656 3.68335 17.9163C1.4975 17.7583 0.227915 17.5985 0.027173 16.9548V16.9557Z" fill="#17183F"/>
<path d="M12.1436 14.5653C13.505 13.5452 16.509 11.5777 20.8611 10.9402C25.2176 10.3018 28.6668 11.3273 30.2656 11.9151C30.7893 13.3543 31.3122 14.7926 31.8359 16.2319C25.2721 17.4465 18.7074 18.662 12.1436 19.8766V14.5653Z" fill="#353D67"/>
<path d="M2.70481 31.3834C1.99017 32.3627 1.68682 32.5039 1.54318 32.4427C1.10155 32.2544 1.66273 29.9469 2.01961 28.7722C2.36132 27.6473 2.76012 26.755 3.05722 26.1539C2.98406 26.1086 2.44607 25.7597 2.37827 25.1142C2.31581 24.5256 2.67001 23.9342 3.26599 23.659C2.99566 22.3743 2.76548 20.7131 2.79581 18.774C2.82614 16.8269 3.11075 15.1675 3.42212 13.8889C3.89231 13.5773 4.36249 13.2657 4.83178 12.9531C4.63014 13.5356 4.39461 14.3107 4.20546 15.2403C3.88428 16.8127 3.85483 18.0335 3.83967 18.8264C3.81736 19.9992 3.87714 21.5521 4.19833 23.3642C4.28398 23.4175 5.00397 23.8854 5.09319 24.8035C5.18062 25.7002 4.59446 26.2889 4.51862 26.3626C4.72561 27.4475 4.9094 28.3052 5.0343 28.8699C5.25289 29.8572 5.40545 30.4583 5.24932 31.2671C5.15921 31.7333 4.93349 32.4462 4.67475 32.4427C4.5097 32.4409 4.37676 32.1479 4.28754 31.8895C4.12517 32.5474 3.6532 32.9532 3.31685 32.9106C2.93767 32.8626 2.5112 32.218 2.70302 31.3834H2.70481Z" fill="#FFD015"/>
<path d="M4.51998 26.3633C4.24162 26.493 3.96861 26.4432 3.85441 26.4157C3.68757 26.3642 3.36549 26.2408 3.07107 25.9434C2.84445 25.7143 2.72668 25.4746 2.66602 25.3236C3.04966 25.5536 3.52697 25.5341 3.85976 25.2784C4.255 24.9756 4.37634 24.394 4.11493 23.9199C4.18808 23.9412 4.88667 24.1552 5.09455 24.8033C5.20161 25.139 5.12756 25.4337 5.09455 25.5571C5.04815 25.7312 4.93128 26.1707 4.51998 26.3624V26.3633Z" fill="#FAA912"/>
<path d="M4.19222 27.7884C4.17973 27.3649 4.21185 27.016 4.24129 26.7852C4.31624 27.0941 4.41884 27.5176 4.53482 28.0228C4.91757 29.6831 4.95147 30.0179 4.87474 30.4334C4.73913 31.1668 4.33319 31.7528 4.29036 31.7359C4.2636 31.7252 4.38137 31.4749 4.4572 31.0931C4.51163 30.8187 4.54731 30.4583 4.32962 28.9294C4.23862 28.2874 4.20382 28.1489 4.19222 27.7893V27.7884Z" fill="#FA9912"/>
<path d="M22.1192 39.3973L21.7939 39.2347C21.5124 39.0939 21.181 39.0939 20.8995 39.2347L20.5742 39.3973V18.325L21.3467 18.1537L22.1192 18.0236V29.6204L28.3233 26.085C28.5551 25.9529 28.7244 25.7337 28.7938 25.4761L31.3892 15.8362H32.9342L29.8442 25.8786L42.838 29.5912C43.1651 29.6846 43.5173 29.6054 43.7729 29.3808L56.1091 18.5399V20.4712L42.2041 32.8311L41.0454 33.7854L49.9291 43.6461H47.6116L39.8866 34.7396L29.0717 43.6461L27.9129 42.8736L42.2041 30.8999L29.497 27.1625C29.2262 27.0828 28.9343 27.1214 28.6934 27.2686L22.1192 31.2861V39.3973Z" fill="#4987F6"/>
<path d="M49.1234 14.616L42.6568 24.5852C42.2626 25.193 41.3731 25.193 40.9789 24.5852L34.463 14.5399C33.23 12.639 32.7434 10.3494 33.0968 8.1113C33.4795 5.68732 35.0093 3.5974 37.2042 2.49994L38.803 1.70057C40.9327 0.635709 43.4497 0.685041 45.536 1.83254L46.5821 2.40789C48.6935 3.56914 50.149 5.64165 50.5248 8.0218C50.8873 10.3175 50.3882 12.6661 49.1234 14.616Z" fill="#4987F6"/>
<path d="M34.0937 7.72467C33.7072 13.9046 42.5905 24.7196 42.5905 24.7196L42.5385 24.7976C42.1745 25.3436 41.401 25.4001 40.981 24.8959C38.4558 21.8652 31.1692 12.5963 32.548 8.11091C33.3843 5.39052 35.2517 3.86218 35.2517 3.86218C35.2517 3.86218 34.2546 5.15215 34.0937 7.72467Z" fill="#2F6AEA"/>
<circle cx="42.4875" cy="9.27069" r="3.86248" fill="#E4EFF8"/>
<path d="M45.6087 11.0926C45.3509 11.5742 44.9939 11.9957 44.5613 12.3291C44.1287 12.6626 43.6302 12.9005 43.0989 13.0272C42.5675 13.1538 42.0153 13.1663 41.4788 13.0639C40.9423 12.9614 40.4336 12.7463 39.9863 12.4328C39.539 12.1193 39.1633 11.7144 38.884 11.245C38.6047 10.7756 38.4281 10.2522 38.3659 9.70955C38.3037 9.16687 38.3574 8.61717 38.5233 8.09674C38.6892 7.57631 38.9636 7.097 39.3284 6.69043C39.6987 9.38642 42.0943 11.3347 44.8092 11.1477L45.6087 11.0926Z" fill="#C4DCF0"/>
</svg>
