<svg width="17" height="17" viewBox="0 0 17 17" fill="none" xmlns="http://www.w3.org/2000/svg">
<path d="M5.60938 3.5848C5.64744 2.69953 5.75921 2.135 6.09291 1.70087C6.22358 1.53187 6.37342 1.3823 6.54243 1.25217C7.19848 0.750002 8.15016 0.750002 10.0535 0.750002H10.4593C12.7547 0.750002 13.9024 0.750002 14.6159 1.46194C15.3287 2.17307 15.3287 3.31914 15.3287 5.60965V11.2792C15.3287 13.5698 15.3287 14.7158 14.6159 15.427C13.9032 16.1381 12.7547 16.1389 10.4593 16.1389H10.0543C8.15016 16.1389 7.19848 16.1389 6.54243 15.6367C6.37389 15.5074 6.22303 15.3566 6.09372 15.188C5.75921 14.7539 5.64744 14.1894 5.60938 13.3041" stroke="white" stroke-width="1.5" stroke-linecap="round" stroke-linejoin="round"/>
<path d="M1.56 8.44453H11.2793M3.58485 11.2793C3.58485 11.2793 0.750057 9.1913 0.750057 8.44453C0.750057 7.69776 3.58485 5.60974 3.58485 5.60974" stroke="white" stroke-width="1.5" stroke-linecap="round" stroke-linejoin="round"/>
</svg>
