<svg width="187" height="50" viewBox="0 0 187 50" fill="none" xmlns="http://www.w3.org/2000/svg">
<path d="M78.5405 36.8182V47H76.4126V38.5682H72.2962V47H70.1683V36.8182H78.5405ZM81.6887 47.1392V45.3892H82.2406C82.5157 45.3892 82.7377 45.3561 82.9068 45.2898C83.0758 45.2202 83.21 45.1191 83.3095 44.9865C83.4122 44.8506 83.4984 44.6816 83.568 44.4794L83.6923 44.1463L79.9934 36.8182H82.2207L84.617 41.8295L86.6206 36.8182H88.818L85.3081 45.0014C85.139 45.3793 84.9385 45.7306 84.7065 46.0554C84.4778 46.3802 84.1845 46.642 83.8265 46.8409C83.4686 47.0398 83.0112 47.1392 82.4544 47.1392H81.6887ZM90.2374 38.593V36.8182H98.5996V38.593H95.4824V47H93.3546V38.593H90.2374ZM99.9767 47V36.8182H106.838V38.593H102.129V41.0192H106.485V42.794H102.129V45.2251H106.857V47H99.9767ZM108.549 47V36.8182H112.626C113.375 36.8182 114 36.9292 114.5 37.1513C115 37.3733 115.377 37.6816 115.629 38.076C115.88 38.4671 116.006 38.9179 116.006 39.4283C116.006 39.826 115.927 40.1757 115.768 40.4773C115.609 40.7756 115.39 41.0208 115.112 41.2131C114.836 41.402 114.522 41.5362 114.167 41.6158V41.7152C114.555 41.7318 114.918 41.8411 115.256 42.0433C115.597 42.2455 115.874 42.5289 116.086 42.8935C116.298 43.2547 116.404 43.6856 116.404 44.1861C116.404 44.7263 116.27 45.2086 116.001 45.6328C115.736 46.0537 115.344 46.3868 114.823 46.6321C114.303 46.8774 113.661 47 112.899 47H108.549ZM110.702 45.2401H112.457C113.057 45.2401 113.494 45.1257 113.769 44.897C114.044 44.665 114.182 44.3568 114.182 43.9723C114.182 43.6906 114.114 43.442 113.978 43.2266C113.842 43.0111 113.648 42.8421 113.396 42.7195C113.148 42.5968 112.851 42.5355 112.506 42.5355H110.702V45.2401ZM110.702 41.0788H112.298C112.593 41.0788 112.854 41.0275 113.083 40.9247C113.315 40.8187 113.497 40.6695 113.63 40.4773C113.766 40.285 113.834 40.0547 113.834 39.7862C113.834 39.4183 113.703 39.1217 113.441 38.8963C113.183 38.6709 112.815 38.5582 112.337 38.5582H110.702V41.0788ZM127.161 41.9091C127.161 43.0194 126.951 43.964 126.53 44.7429C126.112 45.5218 125.542 46.1167 124.82 46.5277C124.101 46.9354 123.292 47.1392 122.394 47.1392C121.489 47.1392 120.677 46.9337 119.958 46.5227C119.238 46.1117 118.67 45.5168 118.252 44.7379C117.835 43.959 117.626 43.0161 117.626 41.9091C117.626 40.7988 117.835 39.8542 118.252 39.0753C118.67 38.2964 119.238 37.7031 119.958 37.2955C120.677 36.8845 121.489 36.679 122.394 36.679C123.292 36.679 124.101 36.8845 124.82 37.2955C125.542 37.7031 126.112 38.2964 126.53 39.0753C126.951 39.8542 127.161 40.7988 127.161 41.9091ZM124.979 41.9091C124.979 41.1899 124.871 40.5833 124.656 40.0895C124.444 39.5956 124.144 39.2211 123.756 38.9659C123.368 38.7107 122.914 38.5831 122.394 38.5831C121.873 38.5831 121.419 38.7107 121.031 38.9659C120.644 39.2211 120.342 39.5956 120.127 40.0895C119.914 40.5833 119.808 41.1899 119.808 41.9091C119.808 42.6283 119.914 43.2348 120.127 43.7287C120.342 44.2225 120.644 44.5971 121.031 44.8523C121.419 45.1075 121.873 45.2351 122.394 45.2351C122.914 45.2351 123.368 45.1075 123.756 44.8523C124.144 44.5971 124.444 44.2225 124.656 43.7287C124.871 43.2348 124.979 42.6283 124.979 41.9091ZM128.204 49.456V45.2848H128.895C129.131 45.1158 129.346 44.8771 129.542 44.5689C129.737 44.2573 129.904 43.8281 130.044 43.2812C130.183 42.7311 130.282 42.0118 130.342 41.1236L130.63 36.8182H137.367V45.2848H138.48V49.446H136.412V47H130.272V49.456H128.204ZM131.381 45.2848H135.299V38.593H132.569L132.41 41.1236C132.367 41.7964 132.296 42.393 132.196 42.9134C132.1 43.4337 131.983 43.8894 131.843 44.2805C131.708 44.6683 131.553 45.0031 131.381 45.2848ZM139.789 36.8182H141.937V43.2216H142.021L146.421 36.8182H148.306V47H146.153V40.5916H146.078L141.654 47H139.789V36.8182ZM149.696 38.593V36.8182H158.059V38.593H154.941V47H152.814V38.593H149.696ZM159.436 47V36.8182H166.297V38.593H161.588V41.0192H165.944V42.794H161.588V45.2251H166.316V47H159.436ZM167.456 47V45.2699L167.744 45.245C168.116 45.2152 168.416 45.0743 168.644 44.8224C168.873 44.5672 169.044 44.1612 169.156 43.6044C169.272 43.0443 169.347 42.2919 169.38 41.3473L169.549 36.8182H176.46V47H174.367V38.5433H171.548L171.389 42.0881C171.336 43.2282 171.2 44.1596 170.981 44.8821C170.766 45.6046 170.421 46.1383 169.947 46.483C169.476 46.8277 168.832 47 168.013 47H167.456ZM179.651 40.5817H182.078C182.886 40.5817 183.582 40.7126 184.166 40.9744C184.752 41.233 185.205 41.5992 185.523 42.0732C185.841 42.5471 185.999 43.1056 185.995 43.7486C185.999 44.3883 185.841 44.9534 185.523 45.4439C185.205 45.9311 184.752 46.3123 184.166 46.5874C183.582 46.8625 182.886 47 182.078 47H178.274V36.8182H180.422V45.2699H182.078C182.465 45.2699 182.792 45.2003 183.057 45.0611C183.322 44.9186 183.523 44.7313 183.659 44.4993C183.798 44.264 183.866 44.0071 183.862 43.7287C183.866 43.3243 183.713 42.983 183.405 42.7045C183.1 42.4228 182.658 42.282 182.078 42.282H179.651V40.5817Z" fill="white"/>
<path d="M69.4759 28.5085V22.5497H70.4631C70.7992 22.3082 71.107 21.9673 71.3864 21.527C71.6657 21.0819 71.9048 20.4688 72.1037 19.6875C72.3026 18.9015 72.4446 17.8741 72.5298 16.6051L72.9418 10.4545H82.5653V22.5497H84.1562V28.4943H81.2017V25H72.4304V28.5085H69.4759ZM74.0142 22.5497H79.6108V12.9901H75.7116L75.4844 16.6051C75.4228 17.5663 75.321 18.4186 75.179 19.1619C75.0417 19.9053 74.8736 20.5563 74.6747 21.1151C74.4806 21.669 74.2604 22.1473 74.0142 22.5497ZM95.6779 10.4545V12.9901H89.1012V25H86.0259V10.4545H95.6779ZM97.093 12.9901V10.4545H109.039V12.9901H104.586V25H101.546V12.9901H97.093ZM112.576 25.1989V22.6989H113.364C113.757 22.6989 114.075 22.6515 114.316 22.5568C114.558 22.4574 114.749 22.313 114.891 22.1236C115.038 21.9295 115.161 21.688 115.261 21.3991L115.438 20.9233L110.154 10.4545H113.336L116.759 17.6136L119.621 10.4545H122.761L117.746 22.1449C117.505 22.6847 117.219 23.1866 116.887 23.6506C116.56 24.1146 116.141 24.4886 115.63 24.7727C115.119 25.0568 114.465 25.1989 113.67 25.1989H112.576Z" fill="white"/>
<path d="M56.9171 42.9102H30.4901C29.9378 42.9102 29.4901 42.4625 29.4901 41.9102V16.0643L22.1027 12.0013C21.8208 11.8463 21.4816 11.8363 21.1911 11.9746L13.6041 15.5852C13.2558 15.751 13.0338 16.1023 13.0338 16.4881V42.9252C13.0338 43.7 13.8769 44.1804 14.5435 43.7855L21.1408 39.8771C21.4568 39.6899 21.85 39.691 22.165 39.8799L29.2526 44.1324C29.408 44.2257 29.5858 44.275 29.7671 44.275H55.7719C56.2179 44.275 56.61 43.9796 56.7331 43.5509L56.9171 42.9102Z" fill="#C4DCF0"/>
<path d="M29.4901 41.9102C29.4901 42.4625 29.9378 42.9102 30.4901 42.9102H56.9171V17.0643C56.9171 16.5121 56.4694 16.0643 55.9171 16.0643H29.4901V41.9102Z" fill="#E4EFF8"/>
<path d="M21.155 37.903L15.7105 41.055C15.0438 41.441 14.2095 40.96 14.2095 40.1896V15.9136C14.2095 15.5271 14.4321 15.1752 14.7814 15.0098L20.2259 12.4309C20.8893 12.1166 21.6539 12.6005 21.6539 13.3346V37.0376C21.6539 37.3944 21.4638 37.7242 21.155 37.903Z" fill="#E4EFF8"/>
<path d="M0.0275645 17.1993C-0.262954 16.268 1.81502 14.8504 2.87211 14.1497C5.37093 12.4943 10.3396 9.43023 19.6724 4.79004C23.3822 4.99359 27.4594 5.39348 31.8307 6.09239C35.6572 6.70484 39.1914 7.4641 42.408 8.2864C42.6659 8.38097 42.9763 8.54308 43.046 8.81598C43.4116 10.2507 36.7813 13.2869 32.2579 14.9134C25.8946 17.2011 21.1024 17.6325 11.8818 18.4629C11.8818 18.4629 10.0301 18.6296 3.73643 18.1738C1.51907 18.0135 0.231199 17.8514 0.0275645 17.1984V17.1993Z" fill="#17183F"/>
<path d="M12.3185 14.7748C13.6996 13.7399 16.7469 11.7441 21.1616 11.0974C25.581 10.4498 29.0799 11.4901 30.7017 12.0863C31.2329 13.5463 31.7633 15.0054 32.2946 16.4653C25.6362 17.6974 18.9769 18.9304 12.3185 20.1625V14.7748Z" fill="#353D67"/>
<path d="M2.7429 31.836C2.01796 32.8294 1.71024 32.9726 1.56453 32.9105C1.11654 32.7196 1.68581 30.3787 2.04782 29.1872C2.39446 28.046 2.79901 27.1409 3.10039 26.5311C3.02617 26.4852 2.48043 26.1312 2.41165 25.4765C2.3483 24.8793 2.7076 24.2795 3.31217 24.0003C3.03794 22.697 2.80444 21.0119 2.83521 19.0449C2.86598 17.0697 3.15469 15.3864 3.47055 14.0894C3.94751 13.7733 4.42446 13.4572 4.90052 13.1401C4.69598 13.731 4.45705 14.5172 4.26518 15.4602C3.93936 17.0553 3.9095 18.2937 3.89411 19.098C3.87148 20.2878 3.93212 21.863 4.25794 23.7013C4.34482 23.7553 5.07519 24.2299 5.16569 25.1612C5.25439 26.0709 4.65978 26.668 4.58285 26.7428C4.79282 27.8434 4.97925 28.7134 5.10596 29.2862C5.3277 30.2878 5.48246 30.8975 5.32408 31.718C5.23267 32.1909 5.00369 32.9141 4.74123 32.9105C4.5738 32.9087 4.43894 32.6115 4.34844 32.3494C4.18372 33.0168 3.70496 33.4284 3.36376 33.3851C2.97911 33.3365 2.5465 32.6826 2.74109 31.836H2.7429Z" fill="#FFD015"/>
<path d="M4.58444 26.7418C4.30207 26.8733 4.02513 26.8229 3.90928 26.7949C3.74004 26.7427 3.41332 26.6175 3.11465 26.3158C2.88477 26.0834 2.76531 25.8402 2.70377 25.6871C3.09293 25.9204 3.57713 25.9006 3.91471 25.6412C4.31564 25.3341 4.43873 24.7441 4.17355 24.2632C4.24777 24.2848 4.95641 24.5019 5.16729 25.1593C5.27589 25.4998 5.20078 25.7988 5.16729 25.924C5.12023 26.1005 5.00167 26.5464 4.58444 26.7409V26.7418Z" fill="#FAA912"/>
<path d="M4.25321 28.1882C4.24054 27.7585 4.27312 27.4046 4.30298 27.1704C4.37901 27.4838 4.48309 27.9135 4.60074 28.4259C4.98901 30.1102 5.0234 30.4497 4.94556 30.8712C4.808 31.6152 4.3962 32.2096 4.35276 32.1925C4.32561 32.1817 4.44508 31.9277 4.522 31.5404C4.57721 31.2621 4.61341 30.8964 4.39258 29.3455C4.30027 28.6943 4.26497 28.5538 4.25321 28.1891V28.1882Z" fill="#FA9912"/>
<path d="M22.4376 39.965L22.1012 39.7968C21.8197 39.6561 21.4883 39.6561 21.2068 39.7968L20.8704 39.965V18.589L21.654 18.4153L22.4376 18.2834V30.0472L28.7363 26.4579C28.9681 26.3258 29.1375 26.1066 29.2068 25.849L31.8412 16.0644H33.4084L30.2739 26.2515L43.4626 30.0197C43.7897 30.1132 44.1418 30.0339 44.3974 29.8094L56.9172 18.8071V20.7661L42.8119 33.3042L41.6365 34.2722L50.6482 44.275H48.2973L40.4611 35.2402L29.4903 44.275L28.3148 43.4913L42.8119 31.3451L29.9156 27.5521C29.6448 27.4724 29.3529 27.5109 29.112 27.6582L22.4376 31.7369V39.965Z" fill="#4987F6"/>
<path d="M49.8309 14.8266L43.2591 24.9581C42.8649 25.5659 41.9754 25.5659 41.5812 24.9581L34.9593 14.7494C33.7085 12.8212 33.2149 10.4985 33.5734 8.22818C33.9616 5.76928 35.5135 3.64924 37.74 2.53596L39.3618 1.72508C41.5222 0.644869 44.0754 0.694913 46.1918 1.85895L47.253 2.44259C49.3948 3.62057 50.8713 5.72294 51.2526 8.13738C51.6202 10.4661 51.1139 12.8486 49.8309 14.8266Z" fill="#4987F6"/>
<path d="M34.5845 7.83611C34.1924 14.1051 43.2037 25.0759 43.2037 25.0759L43.1405 25.1706C42.7765 25.7166 42.003 25.7731 41.5829 25.269C39.0324 22.2096 31.6157 12.785 33.0165 8.22792C33.8648 5.46832 35.7592 3.91797 35.7592 3.91797C35.7592 3.91797 34.7477 5.22652 34.5845 7.83611Z" fill="#2F6AEA"/>
<circle cx="43.0995" cy="9.40349" r="3.91814" fill="#E4EFF8"/>
<path d="M46.2664 11.2525C46.0049 11.741 45.6428 12.1686 45.2039 12.5068C44.765 12.8451 44.2594 13.0864 43.7204 13.2149C43.1814 13.3434 42.6213 13.3561 42.077 13.2522C41.5327 13.1482 41.0167 12.93 40.563 12.612C40.1092 12.2939 39.7281 11.8832 39.4448 11.4071C39.1614 10.9309 38.9823 10.4 38.9193 9.84949C38.8562 9.29899 38.9106 8.74137 39.0789 8.21344C39.2472 7.68551 39.5256 7.19929 39.8957 6.78687C40.2713 9.52171 42.7014 11.498 45.4554 11.3084L46.2664 11.2525Z" fill="#C4DCF0"/>
</svg>
