<svg width="166" height="38" viewBox="0 0 166 38" fill="none" xmlns="http://www.w3.org/2000/svg">
<path d="M64.859 24.5455V34H62.8832V26.1705H59.0607V34H57.0849V24.5455H64.859ZM67.7824 34.1293V32.5043H68.2948C68.5503 32.5043 68.7565 32.4735 68.9134 32.4119C69.0704 32.3473 69.195 32.2534 69.2874 32.1303C69.3828 32.0041 69.4628 31.8472 69.5274 31.6594L69.6428 31.3501L66.2082 24.5455H68.2764L70.5015 29.1989L72.3619 24.5455H74.4024L71.1432 32.1442C70.9862 32.495 70.8 32.8213 70.5846 33.1229C70.3722 33.4245 70.0999 33.6676 69.7675 33.8523C69.4351 34.0369 69.0104 34.1293 68.4933 34.1293H67.7824ZM75.7204 26.1935V24.5455H83.4854V26.1935H80.5908V34H78.615V26.1935H75.7204ZM84.7641 34V24.5455H91.1349V26.1935H86.7631V28.4464H90.8071V30.0945H86.7631V32.3519H91.1533V34H84.7641ZM92.7241 34V24.5455H96.5096C97.2051 24.5455 97.7853 24.6486 98.25 24.8548C98.7147 25.061 99.064 25.3472 99.2979 25.7134C99.5318 26.0766 99.6488 26.4951 99.6488 26.9691C99.6488 27.3384 99.5749 27.6631 99.4272 27.9432C99.2795 28.2202 99.0763 28.4479 98.8178 28.6264C98.5624 28.8018 98.27 28.9265 97.9407 29.0004V29.0927C98.3008 29.1081 98.6378 29.2096 98.9517 29.3974C99.2687 29.5851 99.5257 29.8482 99.7227 30.1868C99.9196 30.5223 100.018 30.9223 100.018 31.3871C100.018 31.8887 99.8935 32.3365 99.6442 32.7305C99.398 33.1213 99.0333 33.4306 98.5501 33.6584C98.0669 33.8861 97.4714 34 96.7635 34H92.7241ZM94.723 32.3658H96.3526C96.9097 32.3658 97.3159 32.2596 97.5714 32.0472C97.8268 31.8318 97.9545 31.5456 97.9545 31.1886C97.9545 30.927 97.8915 30.6961 97.7653 30.4961C97.6391 30.296 97.459 30.1391 97.2251 30.0252C96.9943 29.9113 96.7189 29.8544 96.3988 29.8544H94.723V32.3658ZM94.723 28.5018H96.2049C96.4788 28.5018 96.7219 28.4541 96.9343 28.3587C97.1497 28.2602 97.319 28.1217 97.4421 27.9432C97.5683 27.7647 97.6314 27.5508 97.6314 27.3015C97.6314 26.9599 97.5098 26.6844 97.2667 26.4751C97.0266 26.2659 96.685 26.1612 96.2418 26.1612H94.723V28.5018ZM110.007 29.2727C110.007 30.3037 109.812 31.1809 109.421 31.9041C109.033 32.6274 108.504 33.1798 107.833 33.5614C107.165 33.94 106.414 34.1293 105.58 34.1293C104.74 34.1293 103.986 33.9384 103.318 33.5568C102.65 33.1752 102.122 32.6228 101.734 31.8995C101.347 31.1763 101.153 30.3007 101.153 29.2727C101.153 28.2417 101.347 27.3646 101.734 26.6413C102.122 25.9181 102.65 25.3672 103.318 24.9886C103.986 24.607 104.74 24.4162 105.58 24.4162C106.414 24.4162 107.165 24.607 107.833 24.9886C108.504 25.3672 109.033 25.9181 109.421 26.6413C109.812 27.3646 110.007 28.2417 110.007 29.2727ZM107.98 29.2727C107.98 28.6049 107.88 28.0417 107.68 27.5831C107.483 27.1245 107.205 26.7768 106.845 26.5398C106.485 26.3028 106.063 26.1843 105.58 26.1843C105.097 26.1843 104.675 26.3028 104.315 26.5398C103.955 26.7768 103.675 27.1245 103.475 27.5831C103.278 28.0417 103.179 28.6049 103.179 29.2727C103.179 29.9406 103.278 30.5038 103.475 30.9624C103.675 31.4209 103.955 31.7687 104.315 32.0057C104.675 32.2427 105.097 32.3612 105.58 32.3612C106.063 32.3612 106.485 32.2427 106.845 32.0057C107.205 31.7687 107.483 31.4209 107.68 30.9624C107.88 30.5038 107.98 29.9406 107.98 29.2727ZM110.975 36.2805V32.4073H111.617C111.836 32.2504 112.036 32.0288 112.217 31.7425C112.399 31.4532 112.554 31.0547 112.683 30.5469C112.813 30.036 112.905 29.3681 112.96 28.5433L113.228 24.5455H119.483V32.4073H120.518V36.2713H118.597V34H112.896V36.2805H110.975ZM113.925 32.4073H117.563V26.1935H115.029L114.881 28.5433C114.841 29.1681 114.775 29.7221 114.682 30.2053C114.593 30.6884 114.484 31.1116 114.355 31.4748C114.228 31.8349 114.085 32.1457 113.925 32.4073ZM121.733 24.5455H123.727V30.4915H123.806L127.891 24.5455H129.641V34H127.642V28.0494H127.573L123.464 34H121.733V24.5455ZM130.932 26.1935V24.5455H138.697V26.1935H135.803V34H133.827V26.1935H130.932ZM139.976 34V24.5455H146.347V26.1935H141.975V28.4464H146.019V30.0945H141.975V32.3519H146.365V34H139.976ZM147.424 34V32.3935L147.691 32.3704C148.036 32.3427 148.315 32.2119 148.527 31.978C148.739 31.741 148.898 31.364 149.002 30.8469C149.11 30.3268 149.179 29.6282 149.21 28.7511L149.367 24.5455H155.784V34H153.84V26.1474H151.223L151.075 29.4389C151.026 30.4976 150.9 31.3625 150.697 32.0334C150.497 32.7043 150.177 33.1998 149.736 33.5199C149.299 33.84 148.701 34 147.941 34H147.424ZM158.748 28.0401H161.001C161.752 28.0401 162.398 28.1617 162.94 28.4048C163.484 28.6449 163.904 28.985 164.2 29.4251C164.495 29.8652 164.641 30.3838 164.638 30.9808C164.641 31.5748 164.495 32.0996 164.2 32.555C163.904 33.0075 163.484 33.3614 162.94 33.6168C162.398 33.8723 161.752 34 161.001 34H157.469V24.5455H159.463V32.3935H161.001C161.361 32.3935 161.664 32.3288 161.91 32.1996C162.156 32.0672 162.342 31.8933 162.469 31.6779C162.598 31.4594 162.661 31.2209 162.658 30.9624C162.661 30.5869 162.519 30.2699 162.233 30.0114C161.95 29.7498 161.539 29.619 161.001 29.619H158.748V28.0401Z" fill="#6099FE"/>
<path d="M56.3569 21.6314V17.1623H57.0973C57.3494 16.9812 57.5803 16.7255 57.7898 16.3952C57.9993 16.0614 58.1786 15.6016 58.3278 15.0156C58.4769 14.4261 58.5835 13.6555 58.6474 12.7038L58.9563 8.09091H66.174V17.1623H67.3672V21.6207H65.1513V19H58.5728V21.6314H56.3569ZM59.7607 17.1623H63.9581V9.99254H61.0337L60.8633 12.7038C60.8171 13.4247 60.7408 14.0639 60.6342 14.6214C60.5312 15.179 60.4052 15.6673 60.256 16.0863C60.1104 16.5018 59.9453 16.8604 59.7607 17.1623ZM76.0084 8.09091V9.99254H71.0759V19H68.7694V8.09091H76.0084ZM77.0698 9.99254V8.09091H86.0293V9.99254H82.6895V19H80.4096V9.99254H77.0698ZM88.682 19.1491V17.2741H89.2733C89.568 17.2741 89.8059 17.2386 89.987 17.1676C90.1681 17.093 90.312 16.9847 90.4185 16.8427C90.5286 16.6971 90.6209 16.516 90.6955 16.2994L90.8287 15.9425L86.8656 8.09091H89.252L91.8194 13.4602L93.9661 8.09091H96.3205L92.5598 16.8587C92.3787 17.2635 92.1639 17.6399 91.9153 17.9879C91.6703 18.3359 91.356 18.6165 90.9725 18.8295C90.589 19.0426 90.0989 19.1491 89.5023 19.1491H88.682Z" fill="#0049C6"/>
<path d="M47.9999 36.1875H25.8699C25.3176 36.1875 24.8699 35.7397 24.8699 35.1875V13.5476L18.7102 10.1598C18.4283 10.0047 18.0891 9.9948 17.7986 10.133L11.5621 13.1009C11.2137 13.2667 10.9918 13.6181 10.9918 14.0039V35.9252C10.9918 36.7 11.8349 37.1805 12.5015 36.7855L17.7483 33.6772C18.0643 33.49 18.4575 33.491 18.7725 33.68L24.6324 37.1959C24.7878 37.2892 24.9656 37.3384 25.1469 37.3384H46.9161C47.3621 37.3384 47.7542 37.0431 47.8773 36.6144L47.9999 36.1875Z" fill="#C4DCF0"/>
<path d="M24.8699 35.1875C24.8699 35.7397 25.3176 36.1875 25.8699 36.1875H47.9999V14.5476C47.9999 13.9953 47.5522 13.5476 46.9999 13.5476H24.8699V35.1875Z" fill="#E4EFF8"/>
<path d="M17.7624 32.01L13.4843 34.4868C12.8176 34.8728 11.9832 34.3917 11.9832 33.6214V13.5195C11.9832 13.1331 12.2059 12.7812 12.5552 12.6158L16.8333 10.5893C17.4967 10.2751 18.2614 10.7589 18.2614 11.4931V31.1446C18.2614 31.5014 18.0712 31.8312 17.7624 32.01Z" fill="#E4EFF8"/>
<path d="M0.023246 14.5046C-0.221757 13.7192 1.53066 12.5237 2.42214 11.9328C4.52947 10.5367 8.7197 7.95272 16.5903 4.03951C19.7189 4.21116 23.1573 4.54841 26.8438 5.13782C30.0708 5.65431 33.0513 6.29462 35.7639 6.98809C35.9814 7.06784 36.2432 7.20456 36.302 7.43471C36.6103 8.64467 31.0188 11.2051 27.2041 12.5769C21.8377 14.5061 17.7963 14.87 10.0203 15.5703C10.0203 15.5703 8.45867 15.7108 3.15104 15.3265C1.28108 15.1913 0.194977 15.0545 0.023246 14.5039V14.5046Z" fill="#17183F"/>
<path d="M10.3885 12.4599C11.5532 11.5872 14.1231 9.90404 17.8462 9.35868C21.5732 8.81256 24.5239 9.68985 25.8916 10.1927C26.3397 11.4239 26.7869 12.6544 27.2349 13.8856C21.6197 14.9247 16.0037 15.9645 10.3885 17.0036V12.4599Z" fill="#353D67"/>
<path d="M2.31309 26.8482C1.70173 27.686 1.44223 27.8068 1.31934 27.7544C0.941536 27.5933 1.42162 25.6193 1.72692 24.6144C2.01924 23.652 2.36042 22.8887 2.61458 22.3745C2.55199 22.3357 2.09175 22.0372 2.03374 21.485C1.98032 20.9814 2.28333 20.4756 2.79318 20.2401C2.56191 19.141 2.36499 17.7199 2.39095 16.061C2.4169 14.3953 2.66037 12.9757 2.92675 11.882C3.32898 11.6154 3.73121 11.3488 4.13268 11.0814C3.96019 11.5797 3.75869 12.2428 3.59688 13.038C3.32211 14.3832 3.29692 15.4276 3.28395 16.1059C3.26487 17.1092 3.316 18.4377 3.59077 19.9879C3.66404 20.0335 4.27999 20.4338 4.35631 21.2192C4.43111 21.9863 3.92966 22.4899 3.86478 22.5529C4.04185 23.4811 4.19908 24.2148 4.30594 24.6979C4.49293 25.5425 4.62345 26.0568 4.48988 26.7487C4.41279 27.1475 4.21969 27.7574 3.99835 27.7544C3.85715 27.7528 3.74342 27.5022 3.6671 27.2812C3.52819 27.844 3.12443 28.1911 2.83668 28.1546C2.5123 28.1136 2.14747 27.5622 2.31157 26.8482H2.31309Z" fill="#FFD015"/>
<path d="M3.86615 22.5522C3.62802 22.6631 3.39446 22.6205 3.29677 22.597C3.15404 22.5529 2.87851 22.4474 2.62664 22.1929C2.43277 21.9969 2.33202 21.7919 2.28012 21.6627C2.60832 21.8595 3.01666 21.8427 3.30135 21.624C3.63947 21.365 3.74327 20.8675 3.51964 20.4619C3.58222 20.4801 4.17985 20.6632 4.35768 21.2176C4.44927 21.5047 4.38592 21.7569 4.35768 21.8625C4.31799 22.0114 4.21801 22.3873 3.86615 22.5514V22.5522Z" fill="#FAA912"/>
<path d="M3.58678 23.7719C3.5761 23.4096 3.60357 23.1111 3.62876 22.9137C3.69287 23.178 3.78065 23.5403 3.87987 23.9725C4.2073 25.3928 4.23631 25.6792 4.17067 26.0347C4.05465 26.662 3.70737 27.1633 3.67074 27.1489C3.64784 27.1398 3.74859 26.9256 3.81347 26.599C3.86002 26.3643 3.89055 26.0559 3.70432 24.748C3.62647 24.1988 3.5967 24.0803 3.58678 23.7727V23.7719Z" fill="#FA9912"/>
<path d="M18.9223 33.7037L18.7087 33.5969C18.4271 33.4561 18.0958 33.4561 17.8142 33.5969L17.6006 33.7037V15.6767L18.2614 15.5301L18.9223 15.4189V25.3397L24.1774 22.3451C24.4092 22.213 24.5786 21.9938 24.6479 21.7362L26.8526 13.5476H28.1743L25.5309 22.1387L36.571 25.293C36.8981 25.3865 37.2503 25.3072 37.5059 25.0827L48 15.8606V17.5127L36.1046 28.0864L35.1133 28.9028L42.7131 37.3384H40.7306L34.122 29.7191L24.87 37.3384L23.8787 36.6776L36.1046 26.4343L25.2953 23.2551C25.0245 23.1754 24.7326 23.214 24.4917 23.3612L18.9223 26.7647V33.7037Z" fill="#4987F6"/>
<path d="M42.0239 12.5037L36.6131 20.8453C36.2189 21.453 35.3294 21.453 34.9352 20.8453L29.4822 12.4386C28.4274 10.8125 28.0111 8.85368 28.3134 6.93906C28.6408 4.8654 29.9495 3.07751 31.8273 2.13865L33.195 1.4548C35.0169 0.54383 37.1701 0.586032 38.9549 1.5677L39.8499 2.0599C41.6561 3.05333 42.9013 4.82632 43.2228 6.86249C43.5329 8.8264 43.1059 10.8356 42.0239 12.5037Z" fill="#4987F6"/>
<path d="M29.1661 6.60852C28.8355 11.8954 36.4349 21.1474 36.4349 21.1474C36.1011 21.6482 35.3909 21.6989 35.0062 21.236C32.8001 18.5809 26.6735 10.7459 27.8438 6.93895C28.5592 4.6117 30.1568 3.30424 30.1568 3.30424C30.1568 3.30424 29.3037 4.40778 29.1661 6.60852Z" fill="#2F6AEA"/>
<circle cx="36.3471" cy="7.93037" r="3.30428" fill="#E4EFF8"/>
<path d="M39.0178 9.4896C38.7973 9.90159 38.4919 10.2621 38.1218 10.5474C37.7517 10.8327 37.3253 11.0362 36.8707 11.1446C36.4162 11.2529 35.9438 11.2636 35.4848 11.176C35.0258 11.0883 34.5906 10.9043 34.2079 10.6361C33.8253 10.3678 33.5039 10.0215 33.2649 9.61993C33.026 9.21835 32.8749 8.77065 32.8218 8.30639C32.7686 7.84213 32.8145 7.37188 32.9564 6.92666C33.0983 6.48144 33.3331 6.0714 33.6452 5.72359C33.962 8.02996 36.0114 9.69664 38.3339 9.5367L39.0178 9.4896Z" fill="#C4DCF0"/>
</svg>
