<svg width="16" height="16" viewBox="0 0 16 16" fill="none" xmlns="http://www.w3.org/2000/svg">
<path d="M2 6.66665C2 4.15265 2 2.89531 2.78133 2.11465C3.56267 1.33398 4.81933 1.33331 7.33333 1.33331H8.66667C11.1807 1.33331 12.438 1.33331 13.2187 2.11465C13.9993 2.89598 14 4.15265 14 6.66665V9.33331C14 11.8473 14 13.1046 13.2187 13.8853C12.4373 14.666 11.1807 14.6666 8.66667 14.6666H7.33333C4.81933 14.6666 3.562 14.6666 2.78133 13.8853C2.00067 13.104 2 11.8473 2 9.33331V6.66665Z" stroke="#1E3A5F"/>
<path d="M5.33301 6.66663H10.6663M5.33301 9.33329H8.66634" stroke="#1E3A5F" stroke-linecap="round"/>
</svg>
