<svg width="16" height="16" xmlns="http://www.w3.org/2000/svg">

 <g>
  <title>background</title>
  <rect fill="none" id="canvas_background" height="18" width="18" y="-1" x="-1"/>
 </g>
 <g>
  <title>Layer 1</title>
  <path id="svg_1" fill="#6099FE" d="m7.94737,5.66025c-0.5175,0 -0.9375,0.42 -0.9375,0.9375l0,0.08025c0,0.14918 -0.05926,0.29226 -0.16475,0.39775c-0.10549,0.10549 -0.24857,0.16475 -0.39775,0.16475c-0.14918,0 -0.29226,-0.05926 -0.39775,-0.16475c-0.10549,-0.10549 -0.16475,-0.24857 -0.16475,-0.39775l0,-0.08025c0,-0.54701 0.2173,-1.07161 0.60409,-1.45841c0.3868,-0.38679 0.9114,-0.60409 1.45841,-0.60409l0.087,0c0.40348,0.00019 0.79723,0.12391 1.1283,0.35454c0.3311,0.23063 0.5836,0.5571 0.7236,0.93552c0.14,0.37841 0.1607,0.79062 0.0595,1.18118c-0.1013,0.39057 -0.3197,0.74077 -0.6259,1.00351l-0.5775,0.495c-0.07245,0.0629 -0.13067,0.14051 -0.17076,0.22768c-0.04009,0.08717 -0.06114,0.18188 -0.06174,0.27782l0,0.39975c0,0.1492 -0.05926,0.2923 -0.16475,0.3977c-0.10549,0.1055 -0.24857,0.1648 -0.39775,0.1648c-0.14918,0 -0.29226,-0.0593 -0.39775,-0.1648c-0.10549,-0.1054 -0.16475,-0.2485 -0.16475,-0.3977l0,-0.39975c0,-0.52275 0.228,-1.01925 0.62475,-1.359l0.57825,-0.495c0.13194,-0.11309 0.22608,-0.26389 0.26973,-0.4321c0.04366,-0.1682 0.03474,-0.34574 -0.02555,-0.50873c-0.0603,-0.16298 -0.16907,-0.30359 -0.31168,-0.40289c-0.14261,-0.0993 -0.31222,-0.15253 -0.486,-0.15253l-0.087,0zm0,6.1875c0.19891,0 0.38968,-0.079 0.53033,-0.2197c0.14065,-0.1406 0.21967,-0.3314 0.21967,-0.5303c0,-0.1989 -0.07902,-0.3897 -0.21967,-0.5303c-0.14065,-0.1407 -0.33142,-0.2197 -0.53033,-0.2197c-0.19891,0 -0.38968,0.079 -0.53033,0.2197c-0.14065,0.1406 -0.21967,0.3314 -0.21967,0.5303c0,0.1989 0.07902,0.3897 0.21967,0.5303c0.14065,0.1407 0.33142,0.2197 0.53033,0.2197z"/>
  <path id="svg_2" fill="#6099FE" d="m1.38487,8.09775c0,-1.74048 0.6914,-3.40968 1.92211,-4.64039c1.23071,-1.23071 2.89991,-1.92211 4.64039,-1.92211c1.7405,0 3.4097,0.6914 4.6404,1.92211c1.2307,1.23071 1.9221,2.89991 1.9221,4.64039c0,1.7405 -0.6914,3.4097 -1.9221,4.6404c-1.2307,1.2307 -2.8999,1.9221 -4.6404,1.9221c-1.74048,0 -3.40968,-0.6914 -4.64039,-1.9221c-1.23071,-1.2307 -1.92211,-2.8999 -1.92211,-4.6404zm6.5625,-5.4375c-0.71406,0 -1.42113,0.14064 -2.08084,0.4139c-0.65971,0.27326 -1.25913,0.67379 -1.76405,1.17871c-0.50492,0.50492 -0.90545,1.10434 -1.17871,1.76405c-0.27326,0.65971 -0.4139,1.36678 -0.4139,2.08084c0,0.71406 0.14064,1.4211 0.4139,2.0808c0.27326,0.6597 0.67379,1.2592 1.17871,1.7641c0.50492,0.5049 1.10434,0.9054 1.76405,1.1787c0.65971,0.2733 1.36678,0.4139 2.08084,0.4139c1.4421,0 2.8252,-0.5729 3.8449,-1.5926c1.0197,-1.0197 1.5926,-2.4028 1.5926,-3.8449c0,-1.44211 -0.5729,-2.82516 -1.5926,-3.84489c-1.0197,-1.01973 -2.4028,-1.59261 -3.8449,-1.59261z"/>
 </g>
</svg>