<svg width="16" height="16" viewBox="0 0 16 16" fill="none" xmlns="http://www.w3.org/2000/svg">
<g clip-path="url(#clip0_3435_2582)">
<path d="M15.1108 8.00002H13.5306C12.6578 8.00002 11.9503 8.70752 11.9503 9.58027V11.1605C11.9503 12.0333 12.6578 12.7408 13.5306 12.7408C14.4033 12.7408 15.1108 12.0333 15.1108 11.1605V8.00002ZM15.1108 8.00002C15.1108 4.07267 11.9271 0.888916 7.99974 0.888916C4.0724 0.888916 0.888672 4.07267 0.888672 8.00002M0.888672 8.00002V11.1605C0.888672 12.0333 1.59617 12.7408 2.46891 12.7408C3.34165 12.7408 4.04914 12.0333 4.04914 11.1605V9.58027C4.04914 8.70752 3.34165 8.00002 2.46891 8.00002H0.888672Z" stroke="#1E3A5F" stroke-linecap="round" stroke-linejoin="round"/>
<path d="M15.1109 9.58026V12.7408C15.1109 14.321 14.5842 15.1111 13.5307 15.1111C12.4772 15.1111 11.1603 15.1111 9.58008 15.1111" stroke="#1E3A5F" stroke-linecap="round" stroke-linejoin="round"/>
</g>
<defs>
<clipPath id="clip0_3435_2582">
<rect width="16" height="16" fill="white"/>
</clipPath>
</defs>
</svg>
