<svg width="16" height="16" viewBox="0 0 16 16" fill="none" xmlns="http://www.w3.org/2000/svg">
<path d="M13.2583 8.35402L14.1623 9.15903C14.3292 9.29833 14.4408 9.4928 14.4767 9.70724C14.5127 9.92167 14.4707 10.1419 14.3583 10.328L13.2683 12.19C13.1837 12.3326 13.063 12.4502 12.9183 12.531C12.7719 12.612 12.6076 12.655 12.4403 12.656C12.3365 12.6567 12.2333 12.6411 12.1343 12.61L10.9773 12.228C10.7746 12.358 10.564 12.4744 10.3453 12.577L10.1023 13.75C10.0573 13.9658 9.93719 14.1586 9.7633 14.294C9.5872 14.4319 9.36889 14.5047 9.1453 14.5H6.8883C6.66471 14.5047 6.44639 14.4319 6.2703 14.294C6.09678 14.1584 5.977 13.9657 5.9323 13.75L5.6883 12.577C5.4725 12.473 5.26312 12.3561 5.0613 12.227L3.9003 12.61C3.8013 12.6411 3.69807 12.6567 3.5943 12.656C3.42736 12.6548 3.26337 12.6119 3.1173 12.531C2.97274 12.4505 2.852 12.3332 2.7673 12.191L1.6383 10.328C1.52093 10.1402 1.47608 9.91603 1.51216 9.69751C1.54824 9.479 1.66278 9.28114 1.8343 9.14102L2.7373 8.00002V7.64602L1.8333 6.84102C1.66636 6.70172 1.55482 6.50725 1.51887 6.29281C1.48291 6.07838 1.52493 5.85816 1.6373 5.67202L2.7663 3.81002C2.85086 3.66749 2.97161 3.54985 3.1163 3.46902C3.26237 3.38819 3.42636 3.34522 3.5933 3.34402C3.69613 3.33754 3.79935 3.34698 3.8993 3.37202L5.0373 3.77202C5.24063 3.64202 5.4513 3.52569 5.6693 3.42302L5.9133 2.25002C5.958 2.03439 6.07778 1.84162 6.2513 1.70602C6.42739 1.56817 6.64571 1.4954 6.8693 1.50002H9.1073C9.33089 1.4954 9.5492 1.56817 9.7253 1.70602C9.9003 1.84302 10.0203 2.03602 10.0633 2.25002L10.3073 3.42302C10.524 3.52636 10.733 3.64302 10.9343 3.77302L12.0963 3.39102C12.2253 3.34907 12.3615 3.33434 12.4965 3.34777C12.6314 3.36119 12.7621 3.40248 12.8803 3.46902C13.0253 3.55102 13.1453 3.66902 13.2303 3.80902L14.3583 5.67202C14.4772 5.85825 14.5244 6.08139 14.4909 6.29981C14.4574 6.51823 14.3456 6.717 14.1763 6.85903L13.2583 7.64102V8.35402Z" stroke="#6099FE"/>
<path d="M10.5 8C10.5 8.66304 10.2366 9.29893 9.76777 9.76777C9.29893 10.2366 8.66304 10.5 8 10.5C7.33696 10.5 6.70107 10.2366 6.23223 9.76777C5.76339 9.29893 5.5 8.66304 5.5 8C5.5 7.33696 5.76339 6.70107 6.23223 6.23223C6.70107 5.76339 7.33696 5.5 8 5.5C8.66304 5.5 9.29893 5.76339 9.76777 6.23223C10.2366 6.70107 10.5 7.33696 10.5 8Z" stroke="#6099FE"/>
</svg>
