<svg width="12" height="12" viewBox="0 0 12 12" fill="none" xmlns="http://www.w3.org/2000/svg">
<path d="M10.2917 6.33333H6.33333V10.2917C6.33333 10.5016 6.24993 10.703 6.10146 10.8515C5.95299 10.9999 5.75163 11.0833 5.54167 11.0833C5.3317 11.0833 5.13034 10.9999 4.98187 10.8515C4.83341 10.703 4.75 10.5016 4.75 10.2917V6.33333H0.791667C0.581704 6.33333 0.38034 6.24993 0.231874 6.10146C0.0834076 5.95299 0 5.75163 0 5.54167C0 5.3317 0.0834076 5.13034 0.231874 4.98187C0.38034 4.83341 0.581704 4.75 0.791667 4.75H4.75V0.791667C4.75 0.581704 4.83341 0.38034 4.98187 0.231874C5.13034 0.0834073 5.3317 0 5.54167 0C5.75163 0 5.95299 0.0834073 6.10146 0.231874C6.24993 0.38034 6.33333 0.581704 6.33333 0.791667V4.75H10.2917C10.5016 4.75 10.703 4.83341 10.8515 4.98187C10.9999 5.13034 11.0833 5.3317 11.0833 5.54167C11.0833 5.75163 10.9999 5.95299 10.8515 6.10146C10.703 6.24993 10.5016 6.33333 10.2917 6.33333Z" fill="#6099FE"/>
</svg>
