<svg width="29" height="29" viewBox="0 0 29 29" fill="none" xmlns="http://www.w3.org/2000/svg">
<path d="M11.8332 15.4582C12.0507 15.2415 12.3424 15.1157 12.6493 15.1063C12.9562 15.0969 13.2551 15.2047 13.4853 15.4078C13.7156 15.6108 13.86 15.8939 13.8891 16.1995C13.9182 16.5051 13.8299 16.8103 13.6421 17.0532L13.5418 17.1668L7.75025 22.9583H10.875C11.183 22.9587 11.4792 23.0766 11.7032 23.288C11.9271 23.4994 12.0619 23.7884 12.0799 24.0959C12.098 24.4033 11.9979 24.706 11.8003 24.9422C11.6026 25.1784 11.3222 25.3302 11.0164 25.3665L10.875 25.375H4.83333C4.53737 25.375 4.25172 25.2663 4.03055 25.0696C3.80938 24.873 3.66809 24.602 3.63346 24.308L3.625 24.1667V18.125C3.62534 17.817 3.74327 17.5208 3.95469 17.2968C4.16611 17.0729 4.45507 16.9381 4.76252 16.9201C5.06997 16.902 5.37271 17.0021 5.60888 17.1997C5.84505 17.3974 5.99683 17.6778 6.03321 17.9836L6.04167 18.125V21.2498L11.8332 15.4582ZM24.1667 3.625C24.4626 3.62504 24.7483 3.7337 24.9694 3.93036C25.1906 4.12703 25.3319 4.39803 25.3665 4.69196L25.375 4.83333V10.875C25.3747 11.183 25.2567 11.4792 25.0453 11.7032C24.8339 11.9271 24.5449 12.0619 24.2375 12.0799C23.93 12.098 23.6273 11.9979 23.3911 11.8003C23.1549 11.6026 23.0032 11.3222 22.9668 11.0164L22.9583 10.875V7.75025L17.1668 13.5418C16.9493 13.7585 16.6576 13.8843 16.3507 13.8937C16.0438 13.9031 15.7449 13.7953 15.5147 13.5922C15.2844 13.3892 15.14 13.1061 15.1109 12.8005C15.0818 12.4949 15.1701 12.1897 15.3579 11.9468L15.4582 11.8332L21.2498 6.04167H18.125C17.817 6.04133 17.5208 5.9234 17.2968 5.71198C17.0729 5.50055 16.9381 5.2116 16.9201 4.90415C16.902 4.5967 17.0021 4.29396 17.1997 4.05779C17.3974 3.82161 17.6778 3.66983 17.9836 3.63346L18.125 3.625H24.1667Z" fill="#1E3A5F"/>
</svg>
