<svg width="13" height="13" viewBox="0 0 13 13" fill="none" xmlns="http://www.w3.org/2000/svg">
<path d="M6.49967 1.08331C9.4913 1.08331 11.9163 3.50835 11.9163 6.49998C11.9163 9.4916 9.4913 11.9166 6.49967 11.9166C3.50805 11.9166 1.08301 9.4916 1.08301 6.49998C1.08301 3.50835 3.50805 1.08331 6.49967 1.08331ZM6.49967 2.16665C5.3504 2.16665 4.2482 2.62319 3.43554 3.43585C2.62289 4.24851 2.16634 5.35071 2.16634 6.49998C2.16634 7.64925 2.62289 8.75145 3.43554 9.56411C4.2482 10.3768 5.3504 10.8333 6.49967 10.8333C7.64895 10.8333 8.75115 10.3768 9.5638 9.56411C10.3765 8.75145 10.833 7.64925 10.833 6.49998C10.833 5.35071 10.3765 4.24851 9.5638 3.43585C8.75115 2.62319 7.64895 2.16665 6.49967 2.16665ZM6.49967 3.24998C6.63235 3.25 6.7604 3.29871 6.85954 3.38687C6.95869 3.47503 7.02203 3.59651 7.03755 3.72827L7.04134 3.79165V6.27573L8.50763 7.74202C8.60478 7.8395 8.66118 7.9703 8.66538 8.10785C8.66958 8.24541 8.62127 8.37941 8.53025 8.48263C8.43923 8.58585 8.31233 8.65056 8.17533 8.66361C8.03833 8.67666 7.9015 8.63708 7.79263 8.5529L7.74172 8.50794L6.11672 6.88294C6.03253 6.79868 5.97846 6.68902 5.96288 6.57094L5.95801 6.49998V3.79165C5.95801 3.64799 6.01508 3.51021 6.11666 3.40863C6.21824 3.30705 6.35602 3.24998 6.49967 3.24998Z" fill="#808392"/>
</svg>
