<svg width="13" height="13" viewBox="0 0 13 13" fill="none" xmlns="http://www.w3.org/2000/svg">
<path d="M8.66634 5.41667C8.66634 4.21958 7.69676 3.25 6.49967 3.25C5.30259 3.25 4.33301 4.21958 4.33301 5.41667C4.33301 6.61375 5.30259 7.58333 6.49967 7.58333C7.69676 7.58333 8.66634 6.61375 8.66634 5.41667ZM5.41634 5.41667C5.41634 4.82083 5.90384 4.33333 6.49967 4.33333C7.09551 4.33333 7.58301 4.82083 7.58301 5.41667C7.58301 6.0125 7.09551 6.5 6.49967 6.5C5.90384 6.5 5.41634 6.0125 5.41634 5.41667Z" fill="#808392"/>
<path d="M6.18621 11.8137C6.27829 11.8787 6.39204 11.9167 6.50038 11.9167C6.60871 11.9167 6.72246 11.8842 6.81454 11.8137C6.97704 11.6946 10.85 8.90499 10.8337 5.41124C10.8337 3.02249 8.88913 1.07791 6.50038 1.07791C4.11163 1.07791 2.16704 3.02249 2.16704 5.41124C2.15079 8.89958 6.02371 11.6946 6.18621 11.8137ZM6.50038 2.16666C8.29329 2.16666 9.75038 3.62374 9.75038 5.41666C9.76121 7.82166 7.37246 9.98291 6.50038 10.6925C5.62829 9.98291 3.23954 7.82708 3.25038 5.41666C3.25038 3.62374 4.70746 2.16666 6.50038 2.16666Z" fill="#808392"/>
</svg>
