<svg width="17" height="17" viewBox="0 0 17 17" fill="none" xmlns="http://www.w3.org/2000/svg">
<path d="M6 6.8332L8.715 8.86987C8.8832 8.99602 9.09287 9.05392 9.30197 9.03198C9.51107 9.01003 9.70415 8.90985 9.8425 8.75153L15.1667 2.66653" stroke="#2CC765" stroke-width="2" stroke-linecap="round"/>
<path d="M16 8.49986C16 10.067 15.5092 11.5947 14.5964 12.8685C13.6836 14.1424 12.3947 15.0983 10.9108 15.602C9.42682 16.1057 7.82237 16.1319 6.32275 15.677C4.82313 15.2221 3.50369 14.3088 2.54973 13.0656C1.59577 11.8223 1.05522 10.3114 1.00401 8.74511C0.952794 7.17884 1.39348 5.63587 2.26419 4.33291C3.13489 3.02996 4.39186 2.03247 5.85855 1.48055C7.32525 0.928622 8.92799 0.849992 10.4417 1.2557" stroke="#2CC765" stroke-width="2" stroke-linecap="round"/>
</svg>
