<svg width="17" height="17" viewBox="0 0 17 17" fill="none" xmlns="http://www.w3.org/2000/svg">
<path d="M8.5 0C13.1946 0 17 3.80545 17 8.5C17 13.1946 13.1946 17 8.5 17C3.80545 17 0 13.1946 0 8.5C0 3.80545 3.80545 0 8.5 0ZM8.5 1.7C6.69653 1.7 4.96692 2.41643 3.69167 3.69167C2.41643 4.96692 1.7 6.69653 1.7 8.5C1.7 10.3035 2.41643 12.0331 3.69167 13.3083C4.96692 14.5836 6.69653 15.3 8.5 15.3C10.3035 15.3 12.0331 14.5836 13.3083 13.3083C14.5836 12.0331 15.3 10.3035 15.3 8.5C15.3 6.69653 14.5836 4.96692 13.3083 3.69167C12.0331 2.41643 10.3035 1.7 8.5 1.7ZM8.5 11.05C8.72543 11.05 8.94164 11.1396 9.10104 11.299C9.26045 11.4584 9.35 11.6746 9.35 11.9C9.35 12.1254 9.26045 12.3416 9.10104 12.501C8.94164 12.6604 8.72543 12.75 8.5 12.75C8.27457 12.75 8.05837 12.6604 7.89896 12.501C7.73955 12.3416 7.65 12.1254 7.65 11.9C7.65 11.6746 7.73955 11.4584 7.89896 11.299C8.05837 11.1396 8.27457 11.05 8.5 11.05ZM8.5 3.4C8.72543 3.4 8.94164 3.48955 9.10104 3.64896C9.26045 3.80837 9.35 4.02457 9.35 4.25V9.35C9.35 9.57543 9.26045 9.79163 9.10104 9.95104C8.94164 10.1104 8.72543 10.2 8.5 10.2C8.27457 10.2 8.05837 10.1104 7.89896 9.95104C7.73955 9.79163 7.65 9.57543 7.65 9.35V4.25C7.65 4.02457 7.73955 3.80837 7.89896 3.64896C8.05837 3.48955 8.27457 3.4 8.5 3.4Z" fill="#EAB308"/>
</svg>
