<svg width="13" height="13" viewBox="0 0 13 13" fill="none" xmlns="http://www.w3.org/2000/svg">
<g clip-path="url(#clip0_2807_330)">
<path d="M5.48438 4.8073C5.4844 4.62944 5.53113 4.4547 5.61989 4.30057C5.70866 4.14644 5.83634 4.01833 5.99017 3.92904C6.144 3.83976 6.31858 3.79244 6.49644 3.79182C6.6743 3.79119 6.84921 3.83729 7.00366 3.92549C7.15811 4.01369 7.28669 4.14091 7.37653 4.29441C7.46637 4.44792 7.51433 4.62232 7.5156 4.80018C7.51687 4.97803 7.47141 5.15311 7.38377 5.30788C7.29613 5.46265 7.16938 5.59169 7.01621 5.68209C6.75892 5.8343 6.5 6.06559 6.5 6.36459V7.04167" stroke="#4F8DFF" stroke-linecap="round"/>
<path d="M6.50016 9.20833C6.79932 9.20833 7.04183 8.96582 7.04183 8.66667C7.04183 8.36751 6.79932 8.125 6.50016 8.125C6.20101 8.125 5.9585 8.36751 5.9585 8.66667C5.9585 8.96582 6.20101 9.20833 6.50016 9.20833Z" fill="#4F8DFF"/>
<path d="M11.9168 6.49998C11.9168 9.0534 11.9168 10.3301 11.1233 11.1231C10.3308 11.9166 9.05358 11.9166 6.50016 11.9166C3.94675 11.9166 2.67004 11.9166 1.8765 11.1231C1.0835 10.3306 1.0835 9.0534 1.0835 6.49998C1.0835 3.94656 1.0835 2.66985 1.8765 1.87631C2.67058 1.08331 3.94675 1.08331 6.50016 1.08331C9.05358 1.08331 10.3303 1.08331 11.1233 1.87631C11.6509 2.4039 11.8275 3.14544 11.887 4.33331" stroke="#4F8DFF" stroke-linecap="round"/>
</g>
<defs>
<clipPath id="clip0_2807_330">
<rect width="13" height="13" fill="white"/>
</clipPath>
</defs>
</svg>
