<svg width="13" height="13" viewBox="0 0 13 13" fill="none" xmlns="http://www.w3.org/2000/svg">
<path d="M10.207 4.26562C10.1326 5.29826 9.36658 6.09375 8.53123 6.09375C7.69588 6.09375 6.92857 5.29852 6.85545 4.26562C6.77928 3.19135 7.525 2.4375 8.53123 2.4375C9.53746 2.4375 10.2832 3.2109 10.207 4.26562Z" stroke="#6099FE" stroke-linecap="round" stroke-linejoin="round"/>
<path d="M8.53115 7.71875C6.87644 7.71875 5.28521 8.54064 4.88658 10.1413C4.83377 10.353 4.96656 10.5625 5.18416 10.5625H11.8784C12.096 10.5625 12.228 10.353 12.176 10.1413C11.7773 8.515 10.1861 7.71875 8.53115 7.71875Z" stroke="#6099FE" stroke-miterlimit="10"/>
<path d="M5.07794 4.72113C5.01853 5.54582 4.3995 6.19531 3.73224 6.19531C3.06497 6.19531 2.44493 5.54607 2.38653 4.72113C2.32585 3.86318 2.92837 3.25 3.73224 3.25C4.5361 3.25 5.13862 3.87893 5.07794 4.72113Z" stroke="#6099FE" stroke-linecap="round" stroke-linejoin="round"/>
<path d="M5.23023 7.76954C4.77193 7.55956 4.26716 7.47882 3.73218 7.47882C2.41187 7.47882 1.1398 8.13517 0.821147 9.41359C0.779252 9.58269 0.885385 9.75001 1.05906 9.75001H3.90992" stroke="#6099FE" stroke-miterlimit="10" stroke-linecap="round"/>
</svg>
