<svg width="249" height="18" viewBox="0 0 249 18" fill="none" xmlns="http://www.w3.org/2000/svg">
<path d="M168.033 14.1094C167.732 14.1094 167.473 14.0033 167.258 13.7912C167.042 13.5791 166.936 13.3205 166.94 13.0156C166.936 12.7173 167.042 12.4621 167.258 12.25C167.473 12.0379 167.732 11.9318 168.033 11.9318C168.325 11.9318 168.579 12.0379 168.794 12.25C169.013 12.4621 169.124 12.7173 169.127 13.0156C169.124 13.2178 169.071 13.4018 168.968 13.5675C168.869 13.7332 168.736 13.8658 168.57 13.9652C168.408 14.0613 168.229 14.1094 168.033 14.1094Z" fill="#53545E"/>
<path d="M195.741 7V5.9858C195.741 5.69413 195.795 5.39086 195.905 5.07599C196.018 4.75781 196.17 4.45786 196.362 4.17614C196.558 3.8911 196.777 3.6508 197.018 3.45526L197.854 3.99716C197.658 4.29214 197.494 4.60038 197.362 4.92188C197.232 5.24006 197.169 5.59138 197.173 5.97585V7H195.741ZM198.261 7V5.9858C198.261 5.69413 198.316 5.39086 198.425 5.07599C198.538 4.75781 198.691 4.45786 198.883 4.17614C199.078 3.8911 199.297 3.6508 199.539 3.45526L200.374 3.99716C200.179 4.29214 200.015 4.60038 199.882 4.92188C199.753 5.24006 199.69 5.59138 199.693 5.97585V7H198.261Z" fill="#53545E"/>
<path d="M226.412 10.4205V9.625L232.815 6.36364V7.63636L227.903 10.0028L227.943 9.9233V10.1222L227.903 10.0426L232.815 12.4091V13.6818L226.412 10.4205ZM238.902 3.34091L235.621 15.5312H234.547L237.828 3.34091H238.902ZM247.034 10.4205L240.631 13.6818V12.4091L245.543 10.0426L245.503 10.1222V9.9233L245.543 10.0028L240.631 7.63636V6.36364L247.034 9.625V10.4205Z" fill="#53545E"/>
<path d="M0.884943 14V3.81818H4.96165C5.7107 3.81818 6.33546 3.92921 6.83594 4.15128C7.33641 4.37334 7.7126 4.68158 7.96449 5.07599C8.21638 5.46709 8.34233 5.91785 8.34233 6.42827C8.34233 6.82599 8.26278 7.17566 8.10369 7.47727C7.9446 7.77557 7.72585 8.02083 7.44744 8.21307C7.17235 8.40199 6.85748 8.53622 6.50284 8.61577V8.7152C6.89063 8.73177 7.25355 8.84115 7.59162 9.04332C7.933 9.2455 8.20975 9.52888 8.42188 9.89347C8.634 10.2547 8.74006 10.6856 8.74006 11.1861C8.74006 11.7263 8.60582 12.2086 8.33736 12.6328C8.07221 13.0537 7.67945 13.3868 7.15909 13.6321C6.63873 13.8774 5.9974 14 5.23509 14H0.884943ZM3.03764 12.2401H4.79261C5.39252 12.2401 5.83002 12.1257 6.10511 11.897C6.38021 11.665 6.51776 11.3568 6.51776 10.9723C6.51776 10.6906 6.44981 10.442 6.31392 10.2266C6.17803 10.0111 5.98414 9.84209 5.73224 9.71946C5.48366 9.59683 5.18703 9.53551 4.84233 9.53551H3.03764V12.2401ZM3.03764 8.07884H4.63352C4.9285 8.07884 5.19034 8.02746 5.41903 7.92472C5.65104 7.81866 5.83333 7.66951 5.96591 7.47727C6.1018 7.28504 6.16974 7.05469 6.16974 6.78622C6.16974 6.41832 6.03883 6.12169 5.77699 5.89631C5.51847 5.67093 5.15057 5.55824 4.6733 5.55824H3.03764V8.07884Z" fill="#53545E"/>
<path d="M38.6733 3.34091L35.392 15.5312H34.3182L37.5994 3.34091H38.6733Z" fill="#53545E"/>
<path d="M70.9148 3.81818H72.1477V10.5597C72.1477 11.2557 71.9837 11.8771 71.6555 12.424C71.3307 12.9676 70.8717 13.3968 70.2784 13.7116C69.6851 14.0232 68.9891 14.179 68.1903 14.179C67.3916 14.179 66.6955 14.0232 66.1023 13.7116C65.509 13.3968 65.0483 12.9676 64.7202 12.424C64.3954 11.8771 64.233 11.2557 64.233 10.5597V3.81818H65.4659V10.4602C65.4659 10.9574 65.5753 11.3999 65.794 11.7876C66.0128 12.1721 66.3243 12.4754 66.7287 12.6974C67.1364 12.9162 67.6236 13.0256 68.1903 13.0256C68.7571 13.0256 69.2443 12.9162 69.652 12.6974C70.0597 12.4754 70.3712 12.1721 70.5866 11.7876C70.8054 11.3999 70.9148 10.9574 70.9148 10.4602V3.81818Z" fill="#53545E"/>
<path d="M63 16.7841H73.3807V17.7386H63V16.7841Z" fill="#53545E"/>
<path d="M104.801 6.36364C104.741 5.85985 104.5 5.46875 104.075 5.19034C103.651 4.91193 103.131 4.77273 102.514 4.77273C102.063 4.77273 101.669 4.84564 101.331 4.99148C100.996 5.13731 100.734 5.33783 100.545 5.59304C100.36 5.84825 100.267 6.13826 100.267 6.46307C100.267 6.73485 100.332 6.96851 100.461 7.16406C100.594 7.3563 100.763 7.51705 100.968 7.64631C101.174 7.77225 101.389 7.87666 101.614 7.95952C101.84 8.03906 102.047 8.10369 102.236 8.15341L103.27 8.43182C103.535 8.50142 103.83 8.59754 104.155 8.72017C104.483 8.8428 104.796 9.01018 105.094 9.2223C105.396 9.43111 105.645 9.69957 105.84 10.0277C106.036 10.3558 106.134 10.7585 106.134 11.2358C106.134 11.786 105.989 12.2831 105.701 12.7273C105.416 13.1714 104.998 13.5244 104.448 13.7862C103.901 14.0481 103.237 14.179 102.455 14.179C101.725 14.179 101.094 14.0613 100.56 13.826C100.03 13.5907 99.6125 13.2625 99.3075 12.8416C99.0059 12.4207 98.8352 11.9318 98.7955 11.375H100.068C100.101 11.7595 100.231 12.0777 100.456 12.3295C100.685 12.5781 100.973 12.7637 101.321 12.8864C101.672 13.0057 102.05 13.0653 102.455 13.0653C102.925 13.0653 103.348 12.9891 103.722 12.8366C104.097 12.6809 104.393 12.4654 104.612 12.1903C104.831 11.9119 104.94 11.5871 104.94 11.2159C104.94 10.8778 104.846 10.6027 104.657 10.3906C104.468 10.1785 104.219 10.0062 103.911 9.87358C103.603 9.741 103.27 9.625 102.912 9.52557L101.659 9.16761C100.864 8.93892 100.234 8.61245 99.7699 8.18821C99.3059 7.76397 99.0739 7.20881 99.0739 6.52273C99.0739 5.95265 99.228 5.45549 99.5362 5.03125C99.8478 4.60369 100.265 4.27225 100.789 4.03693C101.316 3.7983 101.904 3.67898 102.554 3.67898C103.21 3.67898 103.794 3.79664 104.304 4.03196C104.814 4.26397 105.219 4.58215 105.517 4.98651C105.819 5.39086 105.978 5.8499 105.994 6.36364H104.801Z" fill="#53545E"/>
<path d="M98 9.41619H106.929V10.3707H98V9.41619Z" fill="#53545E"/>
<path d="M132.233 14V3.81818H133.466V8.35227H138.895V3.81818H140.128V14H138.895V9.44602H133.466V14H132.233Z" fill="#53545E"/>
</svg>
